<svg width="128" height="44" viewBox="0 0 128 44" fill="none" xmlns="http://www.w3.org/2000/svg">
<path d="M19.1579 30.3134V13.3574H22.971V30.3134H19.1579ZM93.28 23.9785C93.28 19.8808 90.1412 17.3374 86.4676 17.3374C82.7708 17.3374 79.6553 19.9043 79.6553 23.9785C79.6553 28.0762 82.7941 30.6431 86.4676 30.6431C90.1412 30.6431 93.28 28.0526 93.28 23.9785ZM89.5134 23.9785C89.5134 26.1215 88.0952 27.3226 86.4444 27.3226C84.7936 27.3226 83.3754 26.1215 83.3754 23.9785C83.3754 21.8119 84.7936 20.6579 86.4444 20.6579C88.0952 20.6579 89.5134 21.8119 89.5134 23.9785ZM17.6234 25.4386C17.6234 23.531 16.6469 22.0709 14.9031 21.4115C16.5539 20.4931 17.1351 19.292 17.1351 17.879C17.1351 15.4063 15.3681 13.3574 11.4155 13.381H3.83594V30.337H11.7411C15.7169 30.3134 17.6234 28.3117 17.6234 25.4386ZM13.0896 18.3736C13.0896 19.5275 12.3688 20.1869 10.9738 20.1869H7.81175V16.6544H10.9738C12.2526 16.6544 13.0896 17.2196 13.0896 18.3736ZM13.4383 25.1795C13.4383 26.2864 12.6711 27.0164 11.2528 27.0164H7.81175V23.3426H11.2528C12.6246 23.3426 13.4383 24.0491 13.4383 25.1795ZM50.8249 20.7992C49.7786 18.5855 47.8256 17.3609 44.8728 17.3609C41.3852 17.3609 38.2697 19.5746 38.2697 23.9785C38.2697 28.2646 41.0132 30.6431 44.8263 30.6431C47.5001 30.6431 49.7554 29.5598 50.8249 27.2284L47.7558 25.627C47.1978 26.6632 46.3376 27.3226 44.9658 27.3226C43.1988 27.3226 42.0595 26.0509 42.0595 23.9785C42.0595 21.9061 43.3615 20.6579 44.9425 20.6579C46.1748 20.6579 47.1048 21.2231 47.6861 22.4477L50.8249 20.7992ZM107.021 20.7992C105.975 18.5855 104.022 17.3609 101.069 17.3609C97.5813 17.3609 94.4658 19.5746 94.4658 23.9785C94.4658 28.2646 97.2093 30.6431 101.022 30.6431C103.696 30.6431 105.951 29.5598 107.021 27.2284L103.952 25.627C103.394 26.6632 102.534 27.3226 101.162 27.3226C99.3948 27.3226 98.2556 26.0509 98.2556 23.9785C98.2556 21.9061 99.5576 20.6579 101.139 20.6579C102.371 20.6579 103.301 21.2231 103.882 22.4477L107.021 20.7992ZM75.0517 30.3134L71.8664 24.6143H69.4251V30.3134H65.4958V13.3574H72.5872C76.4235 13.3574 79.0973 15.2179 79.0973 18.8681C79.0973 21.1996 77.958 22.8481 75.9352 23.8607L79.6088 30.3134H75.0517ZM69.4484 21.2467H72.3779C74.1915 21.2467 75.075 20.2105 75.075 18.9859C75.075 17.5258 74.238 16.7251 72.3779 16.7251H69.4484V21.2467ZM37.6419 30.1015V27.4403C37.4792 27.4874 37.2467 27.5345 36.9909 27.5345C36.5027 27.5345 36.2469 27.2755 36.2469 26.828V22.4242C36.2469 19.1272 34.0614 17.3845 30.4576 17.3845C28.1093 17.3845 26.1098 18.2558 24.8542 19.3862L26.97 21.7883C27.807 21.0347 28.9231 20.5637 30.0158 20.5637C31.6898 20.5637 32.4804 21.4115 32.4804 22.801V23.2013C31.6898 23.0129 30.6901 22.8245 29.4811 22.8245C26.4353 22.8245 24.459 24.3082 24.459 26.7574C24.459 29.2772 26.1098 30.596 28.6673 30.596C30.4111 30.596 31.9688 29.866 32.7826 28.924C33.2709 30.1721 34.3404 30.5018 35.3866 30.5018C36.1074 30.5254 36.9444 30.4076 37.6419 30.1015ZM32.5036 26.1215C32.5036 27.2755 31.4108 28.0291 30.1553 28.0291C28.9696 28.0291 28.3883 27.4168 28.3883 26.569C28.3883 25.6741 29.0393 25.0147 30.3646 25.0147C31.1783 25.0147 31.8991 25.156 32.5036 25.2973V26.1215ZM120.646 30.3134L116.158 22.4242L120.367 17.7848H116.135L111.694 22.7774V13.381H107.904V30.337H111.694V27.2755L113.508 25.3208L116.344 30.337H120.646V30.3134ZM64.4961 30.3134L60.0088 22.4242L64.2171 17.7848H59.939L55.5447 22.7774V13.381H51.7549V30.337H55.5447V27.2755L57.3582 25.3208L60.1948 30.337H64.4961V30.3134ZM122.971 27.9584C123.761 27.9584 124.226 28.453 124.226 29.2066C124.226 29.9602 123.761 30.4547 122.971 30.4547C122.18 30.4547 121.715 29.9602 121.715 29.2066C121.715 28.453 122.18 27.9584 122.971 27.9584ZM122.971 30.2899C123.598 30.2899 124.017 29.9131 124.017 29.2066C124.017 28.5001 123.575 28.1233 122.971 28.1233C122.343 28.1233 121.924 28.5001 121.924 29.2066C121.901 29.9366 122.343 30.2899 122.971 30.2899ZM122.482 28.5707H122.994C123.296 28.5707 123.459 28.7356 123.459 28.9711C123.459 29.183 123.366 29.3008 123.203 29.3714L123.436 29.8189H123.203L122.994 29.4185H122.715V29.8189H122.482V28.5707ZM122.715 28.7591V29.2066H122.971C123.133 29.2066 123.226 29.1595 123.226 28.9946C123.226 28.8533 123.157 28.7827 122.994 28.7827H122.715V28.7591Z" fill="white"/>
</svg>
