<svg width="24" height="24" viewBox="0 0 24 24" fill="none" xmlns="http://www.w3.org/2000/svg">
<path fill-rule="evenodd" clip-rule="evenodd" d="M7.12189 10.797L12.2288 16.0738L17.2812 10.8533L21.4238 15.1337L16.6107 20.1068L15.3725 18.8615L18.9804 15.1337L17.2812 13.378L12.2288 18.5984L7.12189 13.3217L5.44339 15.056L9.10618 18.8406L7.86798 20.0859L3 15.056L7.12189 10.797Z" fill="#05082B"/>
<path fill-rule="evenodd" clip-rule="evenodd" d="M17.3019 13.3215L12.195 8.04476L7.14256 13.2652L3 8.98487L7.81311 4.01169L9.0513 5.25697L5.44339 8.98487L7.14256 10.7406L12.195 5.52011L17.3019 10.7969L18.9804 9.06257L15.3176 5.27796L16.5558 4.03268L21.4238 9.06257L17.3019 13.3215Z" fill="#05082B"/>
<path fill-rule="evenodd" clip-rule="evenodd" d="M11.4326 19.9829V16.6583H13.1003V19.9829H11.4326Z" fill="#05082B"/>
<path fill-rule="evenodd" clip-rule="evenodd" d="M11.4326 7.46026V4.13568H13.1003V7.46026H11.4326Z" fill="#05082B"/>
</svg>
