<svg width="38" height="40" viewBox="0 0 38 40" fill="none" xmlns="http://www.w3.org/2000/svg">
<path d="M33.9599 1.41309V29.4688L18.0449 38.6674L2.12988 29.4688V1.41309H33.9599Z" fill="#79F2A5" stroke="#2D505F" stroke-width="1.44"/>
<path d="M18.0449 1.87305L33.9599 11.0717V29.4689L18.0449 38.6675L2.12988 29.4689V11.0717L18.0449 1.87305Z" fill="#3399D6" stroke="#2D505F" stroke-width="1.44"/>
<path d="M18.0449 1.87305L33.9599 29.4689L18.0449 38.6675L2.12988 29.4689L18.0449 1.87305Z" fill="#40DCFF"/>
<path d="M2.52148 11.2461L33.7181 29.3903" stroke="#2D505F" stroke-width="1.44"/>
<path d="M33.7178 11.2461L2.52111 29.3903" stroke="#2D505F" stroke-width="1.44"/>
<path d="M18.1201 2.27051V38.1527" stroke="#2D505F" stroke-width="1.44"/>
<path d="M18.0537 2.05371L2.45777 29.305" stroke="#2D505F" stroke-width="1.44"/>
<path d="M17.9951 1.85352L33.7405 29.3055" stroke="#2D505F" stroke-width="1.44"/>
<path d="M18.0449 1.87305L33.9599 11.0717V29.4689L18.0449 38.6675L2.12988 29.4689V11.0717L18.0449 1.87305Z" stroke="#2D505F" stroke-width="1.44"/>
</svg>
