<svg width="140" height="44" viewBox="0 0 140 44" fill="none" xmlns="http://www.w3.org/2000/svg">
<path d="M3.30371 17.7382L14.406 16.5259L25.5082 17.7382V19.959H3.30371V17.7382ZM3.30371 21.5745H25.5082V23.7944L14.406 25.0067L3.30371 23.7934V21.5745ZM3.30371 25.612L14.406 27.0245L25.5082 25.612V28.0339L14.406 31.2649L3.30371 28.0339V25.612ZM3.30371 13.4978L14.406 10.2686L25.5082 13.4987V15.9215L14.406 14.5081L3.30371 15.9206V13.4978ZM38.5847 27.9007C37.6598 27.9088 36.7414 27.7419 35.8764 27.4084C35.0683 27.098 34.3304 26.6241 33.7073 26.0151C33.0922 25.4131 32.605 24.6888 32.276 23.8871C31.9351 23.0716 31.7646 22.1788 31.7646 21.2145C31.7646 20.2501 31.936 19.3574 32.276 18.5418C32.6074 17.7392 33.0974 17.0146 33.7154 16.4129C34.3412 15.8074 35.0783 15.3339 35.8845 15.0196C36.7088 14.6927 37.617 14.5273 38.601 14.5273C39.6472 14.5273 40.5987 14.7083 41.4636 15.0756C42.3276 15.443 43.0572 15.9849 43.6525 16.7031L42.121 18.1699C41.6873 17.6837 41.159 17.2946 40.5698 17.0273C39.9828 16.7707 39.3497 16.6415 38.711 16.648C38.0445 16.648 37.4303 16.761 36.8784 16.9832C36.3393 17.1943 35.8494 17.5174 35.4398 17.932C35.0289 18.3432 34.7061 18.8366 34.492 19.3813C34.2617 19.9649 34.1471 20.5892 34.1547 21.2182C34.1547 21.8849 34.2656 22.4985 34.492 23.055C34.7174 23.6125 35.0313 24.0974 35.4389 24.5052C35.8484 24.913 36.3273 25.228 36.8784 25.454C37.463 25.6823 38.0848 25.796 38.711 25.7892C39.3766 25.7892 39.9989 25.6643 40.5707 25.4099C41.1416 25.1555 41.6566 24.767 42.121 24.2472L43.6516 25.7323C43.0567 26.4385 42.3068 26.9919 41.4627 27.3478C40.5978 27.7188 39.6381 27.9053 38.5802 27.9053L38.5838 27.9007H38.5847ZM45.2262 27.7152V13.934H47.5062V27.7152H45.2262ZM54.4526 27.8447C53.3703 27.8447 52.4269 27.6261 51.6179 27.1862C50.8089 26.7462 50.1821 26.1446 49.7384 25.3732C49.2947 24.6063 49.0719 23.7337 49.0719 22.7529C49.0719 21.772 49.2866 20.8875 49.7186 20.1243C50.1411 19.3703 50.76 18.7498 51.507 18.3315C52.2682 17.8998 53.1322 17.6813 54.1045 17.6813C55.0758 17.6813 55.8965 17.8916 56.6379 18.3113C57.3749 18.7268 57.9822 19.3452 58.3902 20.0958C58.8141 20.8627 59.0288 21.7674 59.0288 22.8098C59.0288 22.9108 59.0288 23.0192 59.0197 23.1441C59.0133 23.2616 59.0043 23.3788 58.9927 23.4959H50.8757V21.9529H57.7878L56.8949 22.4378C56.9075 21.8684 56.7921 21.3679 56.5504 20.9316C56.3151 20.5059 55.971 20.153 55.5547 19.9103C55.1344 19.6642 54.651 19.5393 54.1035 19.5393C53.557 19.5393 53.0574 19.6642 52.6371 19.9103C52.2168 20.1564 51.8876 20.4999 51.654 20.9399C51.4195 21.3807 51.2969 21.8969 51.2969 22.4902V22.8622C51.2969 23.4555 51.4322 23.9845 51.6973 24.4409C51.9625 24.9002 52.3395 25.2519 52.8274 25.4981C53.3144 25.7451 53.8736 25.87 54.5049 25.87C55.0514 25.87 55.543 25.7855 55.984 25.612C56.4281 25.4331 56.8265 25.154 57.1492 24.7955L58.3704 26.2255C57.9229 26.7542 57.3572 27.1656 56.7208 27.4249C56.0588 27.7032 55.3013 27.8447 54.4481 27.8447H54.4526ZM63.8061 27.8447C63.0765 27.8447 62.4388 27.7161 61.8914 27.4654C61.3439 27.2146 60.92 26.8592 60.6224 26.4073C60.3242 25.9553 60.1678 25.4217 60.1742 24.8772C60.1742 24.3078 60.3049 23.8192 60.5665 23.371C60.828 22.9264 61.2564 22.5719 61.8517 22.3129C62.4469 22.0539 63.2397 21.9208 64.2227 21.9208H67.0502V23.4637H64.3851C63.6086 23.4637 63.0846 23.5923 62.8158 23.843C62.6872 23.961 62.5848 24.1057 62.5156 24.2672C62.4464 24.4288 62.4119 24.6036 62.4145 24.7798C62.4145 25.1996 62.5768 25.5348 62.906 25.7809C63.2352 26.0271 63.6906 26.1529 64.2742 26.1529C64.8568 26.1529 65.333 26.0234 65.7767 25.7607C66.2213 25.5027 66.5379 25.1188 66.7363 24.6099L67.1214 26.0032C66.9032 26.5846 66.5108 27.0364 65.9436 27.3597C65.3763 27.683 64.6629 27.8447 63.7989 27.8447H63.8061ZM66.8716 27.7161V25.7075L66.7453 25.2795V21.7711C66.7453 21.0887 66.5424 20.5587 66.1411 20.184C65.7415 19.8084 65.131 19.6182 64.3175 19.6182C63.7709 19.6182 63.2316 19.7073 62.704 19.8772C62.2163 20.0296 61.7615 20.2749 61.3638 20.6L60.4718 18.9083C60.9949 18.5005 61.6172 18.1928 62.3387 17.9871C63.0724 17.7804 63.8304 17.6772 64.5916 17.6803C66.0031 17.6803 67.0935 18.0238 67.8664 18.7099C68.6402 19.3969 69.0244 20.4586 69.0244 21.896V27.7097H66.8716V27.7143V27.7161ZM71.1935 27.7152V17.7997H73.3625V20.5293L73.1082 19.7303C73.4022 19.0598 73.8576 18.5547 74.4845 18.2075C75.1104 17.8603 75.8914 17.6868 76.8276 17.6868V19.8947C76.7377 19.8723 76.6464 19.8564 76.5543 19.8469C76.4696 19.8418 76.3848 19.8388 76.2999 19.8377C75.4359 19.8377 74.7496 20.0967 74.2382 20.6092C73.7269 21.1226 73.4734 21.8895 73.4734 22.9035V27.7124H71.1935V27.7161V27.7152ZM88.0642 27.9007C87.0694 27.9007 86.1143 27.7556 85.2016 27.4654C84.2907 27.1742 83.5683 26.7986 83.0335 26.3421L83.8542 24.4648C84.3656 24.8726 84.996 25.2161 85.7491 25.4861C86.4923 25.7554 87.2753 25.8933 88.0642 25.8939C88.7352 25.8939 89.2736 25.8214 89.6867 25.6726C90.0989 25.5229 90.4037 25.3208 90.5976 25.0664C90.7924 24.812 90.8916 24.5254 90.8916 24.2031C90.8916 23.8063 90.7527 23.4876 90.4714 23.2451C90.19 23.0027 89.8292 22.8135 89.3846 22.6684C88.897 22.5149 88.4035 22.3813 87.9055 22.2679C87.3625 22.143 86.8232 21.9979 86.2839 21.8326C85.7668 21.6776 85.2702 21.4592 84.8048 21.1823C84.3642 20.919 83.9919 20.5521 83.7189 20.1124C83.4375 19.6678 83.2986 19.0984 83.2986 18.4041C83.2986 17.7097 83.4853 17.0512 83.8533 16.4616C84.2231 15.8729 84.7894 15.4045 85.5506 15.049C86.3118 14.6973 87.276 14.52 88.4412 14.52C89.2069 14.52 89.9681 14.621 90.7212 14.8185C91.4743 15.016 92.1326 15.3034 92.6918 15.6745L91.9432 17.5518C91.3913 17.2124 90.7958 16.9527 90.1737 16.7803C89.6028 16.6195 89.0137 16.5355 88.4214 16.5305C87.763 16.5305 87.2318 16.6113 86.8277 16.7729C86.4192 16.9346 86.1215 17.144 85.9348 17.403C85.7465 17.6602 85.6475 17.9739 85.6535 18.2948C85.6535 18.6906 85.7887 19.0102 86.062 19.2518C86.3362 19.4942 86.6933 19.6834 87.1371 19.8175C87.5808 19.9553 88.0768 20.0876 88.6234 20.2171C89.1708 20.3456 89.7147 20.4917 90.2576 20.6533C90.773 20.8041 91.2694 21.0155 91.7367 21.2834C92.1804 21.5414 92.5376 21.8969 92.8109 22.3405C93.0841 22.785 93.223 23.3508 93.223 24.0332C93.223 24.7156 93.0372 25.3695 92.6684 25.9545C92.2959 26.5442 91.7286 27.0126 90.9638 27.368C90.1972 27.7234 89.2304 27.897 88.0642 27.897V27.9007ZM93.6992 19.7284V17.8714H100.194V19.7284H93.6992ZM98.6596 27.8447C97.5891 27.8447 96.7638 27.5618 96.1767 27.0006C95.5941 26.4395 95.301 25.6037 95.301 24.5016V15.6047H97.5809V24.4474C97.5809 24.9204 97.7 25.2832 97.9372 25.5422C98.1753 25.8002 98.5045 25.9334 98.9329 25.9334C99.4442 25.9334 99.869 25.7956 100.21 25.5256L100.848 27.177C100.558 27.4125 100.223 27.583 99.8645 27.6775C99.4758 27.7914 99.0754 27.8428 98.6596 27.8428V27.8447ZM101.911 27.7152V17.7997H104.079V20.5293L103.826 19.7303C104.102 19.0785 104.587 18.5416 105.202 18.2075C105.828 17.8603 106.609 17.6868 107.545 17.6868V19.8947C107.455 19.8724 107.364 19.8564 107.272 19.8469C107.187 19.8419 107.102 19.8388 107.017 19.8377C106.153 19.8377 105.467 20.0967 104.956 20.6092C104.444 21.1226 104.191 21.8895 104.191 22.9035V27.7124H101.911V27.7161V27.7152ZM113.326 27.8447C112.244 27.8447 111.3 27.6261 110.491 27.1862C109.683 26.7462 109.056 26.1446 108.612 25.3732C108.167 24.6063 107.945 23.7337 107.945 22.7529C107.945 21.772 108.159 20.8875 108.592 20.1243C109.014 19.3703 109.633 18.7498 110.38 18.3315C111.142 17.8998 112.006 17.6813 112.981 17.6813C113.957 17.6813 114.774 17.8916 115.515 18.3113C116.252 18.7269 116.859 19.3453 117.267 20.0958C117.691 20.8627 117.906 21.7674 117.906 22.8098C117.906 22.9108 117.906 23.0192 117.898 23.1441C117.891 23.2616 117.882 23.3788 117.87 23.4959H109.754V21.9529H116.665L115.772 22.4378C115.785 21.8684 115.669 21.3679 115.428 20.9316C115.193 20.5059 114.849 20.153 114.433 19.9103C114.012 19.6642 113.528 19.5393 112.981 19.5393C112.434 19.5393 111.93 19.6642 111.514 19.9103C111.098 20.1522 110.756 20.5091 110.53 20.9399C110.293 21.3807 110.174 21.8969 110.174 22.4902V22.8622C110.174 23.4555 110.308 23.9845 110.574 24.4409C110.84 24.9002 111.217 25.2519 111.705 25.4981C112.192 25.7451 112.751 25.87 113.381 25.87C113.929 25.87 114.42 25.7855 114.86 25.612C115.305 25.4342 115.704 25.1549 116.026 24.7955L117.248 26.2255C116.8 26.7541 116.234 27.1654 115.598 27.4249C114.936 27.7032 114.178 27.8447 113.326 27.8447ZM124.483 27.8447C123.401 27.8447 122.458 27.6261 121.649 27.1862C120.84 26.7462 120.213 26.1446 119.769 25.3732C119.326 24.6063 119.103 23.7337 119.103 22.7529C119.103 21.772 119.317 20.8875 119.749 20.1243C120.172 19.3702 120.791 18.7498 121.538 18.3315C122.299 17.8998 123.163 17.6813 124.139 17.6813C125.114 17.6813 125.931 17.8916 126.672 18.3113C127.41 18.7266 128.017 19.3451 128.425 20.0958C128.849 20.8627 129.063 21.7674 129.063 22.8098C129.063 22.9108 129.063 23.0192 129.055 23.1441C129.049 23.2616 129.04 23.3789 129.028 23.4959H120.911V21.9529H127.822L126.93 22.4378C126.942 21.8684 126.827 21.3679 126.585 20.9316C126.35 20.5059 126.006 20.153 125.59 19.9103C125.17 19.6642 124.686 19.5393 124.139 19.5393C123.591 19.5393 123.088 19.6642 122.672 19.9103C122.255 20.152 121.914 20.509 121.688 20.9399C121.45 21.3807 121.331 21.8969 121.331 22.4902V22.8622C121.331 23.4555 121.467 23.9845 121.732 24.4409C121.997 24.8997 122.39 25.2677 122.862 25.4981C123.35 25.7451 123.909 25.87 124.539 25.87C125.087 25.87 125.578 25.7855 126.018 25.612C126.463 25.4342 126.862 25.1549 127.184 24.7955L128.405 26.2255C127.958 26.7545 127.392 27.1659 126.755 27.4249C126.093 27.7032 125.337 27.8447 124.483 27.8447ZM129.634 19.7284V17.8714H136.13V19.7284H129.634ZM134.594 27.8447C133.524 27.8447 132.7 27.5618 132.113 27.0006C131.53 26.4395 131.236 25.6037 131.236 24.5016V15.6047H133.516V24.4474C133.516 24.9204 133.635 25.2832 133.873 25.5422C134.111 25.8002 134.44 25.9334 134.868 25.9334C135.38 25.9334 135.804 25.7956 136.145 25.5256L136.783 27.177C136.517 27.3992 136.188 27.5691 135.8 27.6775C135.412 27.7914 135.011 27.8428 134.594 27.8428V27.8447Z" fill="white"/>
</svg>
