<svg width="24" height="24" viewBox="0 0 24 24" fill="none" xmlns="http://www.w3.org/2000/svg">
<path d="M23.959 13.9829L22.6096 7.55819C22.5977 7.50111 22.5808 7.4452 22.559 7.39113C22.3672 6.72289 22.1107 6.57818 21.7649 6.29701C21.4448 6.05466 21.3072 5.96289 21.3072 5.96289C21.3072 5.96289 20.4319 7.98407 20.1931 8.17583C17.8519 10.0582 13.9296 12.9911 12.9707 13.5205L12.9531 13.5299C12.638 13.7221 12.2813 13.8359 11.9131 13.8617V23.5311C12.7318 23.5097 13.5313 23.2789 14.2354 22.8605C15.2943 22.2723 18.1107 20.0111 21.4119 17.3311L22.706 16.2817C23.566 15.5888 23.979 14.9005 23.9696 14.1747C23.9722 14.1105 23.9686 14.0463 23.959 13.9829Z" fill="#56189E"/>
<path d="M11.0721 13.6005L3.51446 8.0358C3.45142 7.98352 3.39528 7.92343 3.3474 7.85698C3.34072 7.67436 3.28554 7.49681 3.18754 7.34257C3.08954 7.18833 2.95224 7.06296 2.78976 6.97933L2.83799 5.87109C2.83799 5.87109 2.68034 5.97462 2.32034 6.19227C1.8674 6.46403 1.5274 6.66286 1.29446 7.73227L1.11917 8.60756L0.0203451 14.1064C0.00505103 14.1838 -0.00165617 14.2628 0.00034512 14.3417C0.0262275 15.3358 0.879169 16.0323 1.07446 16.1782L9.69329 22.8087C10.3376 23.2916 11.1235 23.5476 11.9286 23.537V13.8605C11.6212 13.8793 11.3172 13.787 11.0721 13.6005Z" fill="#3A1B9B"/>
<path d="M21.9334 6.41499C21.9187 6.40443 21.9045 6.39304 21.8911 6.38088C21.6252 6.15617 16.3769 2.55146 13.2722 0.423229C12.8613 0.139582 12.372 -0.00829181 11.8727 0.000359026C11.3735 0.00900986 10.8895 0.173751 10.4887 0.471465L10.1087 0.758523C9.44989 1.25382 8.22636 2.17029 6.75107 3.22088C5.0593 4.42676 3.50283 5.47617 2.11813 6.30794C1.52989 6.66088 0.986362 7.61499 2.47107 8.77852C2.62754 8.89617 10.4381 14.6903 10.4381 14.6903C11.3346 15.3503 12.3958 15.2915 13.4487 14.6809C14.4734 14.115 18.1017 11.3985 20.3899 9.58558L20.9711 9.12323C21.0252 9.0797 21.0746 9.03735 21.1217 8.99499C22.0993 8.18676 22.9193 7.09617 21.9334 6.41499Z" fill="#8524E2"/>
<path d="M8.29166 8.50739C8.55511 8.72861 8.87118 8.87813 9.2093 8.94151C9.53481 8.99714 9.86801 8.98915 10.1905 8.91798C10.5249 8.84607 10.8521 8.74409 11.1681 8.61327C11.3952 8.52033 11.6246 8.41798 11.874 8.30033C11.8952 8.29092 11.9917 8.24269 12.0046 8.2568L13.2293 9.19798C13.3152 9.26151 13.3187 9.2921 13.1481 9.36033C12.9998 9.4149 12.8426 9.44123 12.6846 9.43798H12.6728C12.3031 9.43266 11.9448 9.30896 11.6505 9.08504C11.6167 9.05928 11.5753 9.04533 11.5328 9.04533C11.4903 9.04533 11.449 9.05928 11.4152 9.08504L10.2693 9.97445C10.2457 9.99253 10.2267 10.0159 10.2139 10.0427C10.201 10.0694 10.1946 10.0989 10.1952 10.1286C10.1956 10.1592 10.2031 10.1893 10.2172 10.2164C10.2313 10.2436 10.2516 10.2671 10.2764 10.285C10.6703 10.5785 11.1277 10.7751 11.6117 10.8592C11.8013 10.8921 11.9933 10.9086 12.1858 10.9086C12.5585 10.9065 12.9288 10.8491 13.2846 10.738C13.667 10.6207 14.0315 10.4517 14.3681 10.2356C14.3789 10.2279 14.3919 10.2237 14.4052 10.2237C14.4185 10.2237 14.4314 10.2279 14.4422 10.2356L15.0305 10.685C15.0644 10.7104 15.1057 10.7242 15.1481 10.7242C15.1905 10.7242 15.2318 10.7104 15.2658 10.685L15.8199 10.2474C15.8436 10.2291 15.8626 10.2056 15.8755 10.1786C15.8883 10.1516 15.8947 10.122 15.894 10.0921C15.8935 10.0626 15.8862 10.0335 15.8727 10.0072C15.8593 9.98093 15.84 9.95805 15.8164 9.94033L15.314 9.56386C15.307 9.5583 15.3012 9.55136 15.2969 9.54347C15.2927 9.53558 15.2901 9.52691 15.2893 9.51798C15.2883 9.50831 15.2894 9.49852 15.2927 9.48936C15.2959 9.48019 15.3012 9.47188 15.3081 9.46504C15.5381 9.23317 15.7317 8.96781 15.8822 8.67798C16.0719 8.33569 16.1395 7.93907 16.074 7.55327C15.9933 7.18702 15.7714 6.8674 15.4564 6.66386C15.1655 6.44926 14.8316 6.30034 14.4775 6.22739C14.1595 6.16797 13.8332 6.16797 13.5152 6.22739C13.1982 6.28587 12.8879 6.37653 12.5893 6.49798C12.3199 6.60739 11.8517 6.82386 11.7917 6.85092C11.7317 6.87798 11.6587 6.89916 11.6246 6.87445L10.5481 6.06739C10.5915 6.04653 10.6363 6.02883 10.6822 6.01445C10.8868 5.95035 11.1012 5.92403 11.3152 5.9368C11.4938 5.94728 11.6673 6.00054 11.8211 6.0921C11.8539 6.11224 11.892 6.12221 11.9306 6.12074C11.9691 6.11928 12.0063 6.10645 12.0375 6.08386L13.0587 5.3321C13.0849 5.31278 13.1057 5.28721 13.1194 5.25774C13.1331 5.22826 13.1392 5.19581 13.1371 5.16338C13.135 5.13094 13.1248 5.09955 13.1074 5.07209C13.09 5.04463 13.066 5.02198 13.0375 5.00621C12.6983 4.81751 12.3205 4.70849 11.9328 4.68739C11.4551 4.66155 10.9767 4.72294 10.5211 4.86857C10.2138 4.96435 9.91704 5.09087 9.63519 5.24621C9.62481 5.25281 9.61277 5.25631 9.60048 5.25631C9.58819 5.25631 9.57615 5.25281 9.56577 5.24621L9.07401 4.8768C9.04082 4.8533 9.00115 4.84068 8.96048 4.84068C8.91981 4.84068 8.88014 4.8533 8.84695 4.8768L8.3293 5.22974C8.30399 5.2468 8.28318 5.26972 8.26864 5.29656C8.25409 5.32339 8.24625 5.35334 8.24577 5.38386C8.24475 5.41442 8.25106 5.44478 8.26415 5.47241C8.27725 5.50004 8.29677 5.52413 8.32107 5.54269L8.68225 5.82033C8.68988 5.82593 8.69617 5.83317 8.70065 5.84152C8.70513 5.84987 8.70768 5.85911 8.70813 5.86857C8.7081 5.87854 8.70599 5.8884 8.70194 5.89752C8.69789 5.90663 8.69198 5.9148 8.6846 5.92151C8.46492 6.11141 8.27251 6.33073 8.11283 6.57327C7.89587 6.88033 7.78666 7.25057 7.80225 7.62621C7.81808 7.79905 7.86978 7.96668 7.95405 8.1184C8.03832 8.27012 8.1533 8.40261 8.29166 8.50739ZM9.60107 6.87916C9.62725 6.81094 9.66162 6.74615 9.70342 6.68622C9.77166 6.58739 9.7846 6.58504 9.84695 6.6321L10.6352 7.2368C10.7081 7.29563 10.7528 7.31916 10.5681 7.38857C10.4582 7.42655 10.344 7.45104 10.2281 7.46151C10.1458 7.47509 10.0616 7.47166 9.98065 7.45142C9.89971 7.43119 9.82378 7.39458 9.75754 7.34386C9.68096 7.29719 9.62328 7.225 9.59466 7.14001C9.56605 7.05501 9.56831 6.96265 9.60107 6.87916ZM14.1046 7.77445C14.3093 7.92504 14.3846 8.09798 14.3399 8.30386C14.3128 8.41976 14.2597 8.52799 14.1846 8.62033C14.1246 8.69327 14.0905 8.71327 14.0317 8.67327L13.0446 7.93327C12.927 7.83445 12.927 7.83445 13.1281 7.74504C13.2808 7.69339 13.4386 7.65828 13.5987 7.64033C13.7782 7.62046 13.9586 7.66829 14.1046 7.77445Z" fill="white"/>
</svg>
