<svg width="72" height="72" viewBox="0 0 72 72" fill="none" xmlns="http://www.w3.org/2000/svg">
<path d="M66 36C66 52.5685 52.5685 66 36 66C19.4315 66 6 52.5685 6 36C6 19.4315 19.4315 6 36 6C52.5685 6 66 19.4315 66 36Z" fill="#0052FF"/>
<path d="M56.8337 35.9994C56.8337 47.5053 47.5063 56.8327 36.0003 56.8327C24.4944 56.8327 15.167 47.5053 15.167 35.9994C15.167 24.4934 24.4944 15.166 36.0003 15.166C47.5063 15.166 56.8337 24.4934 56.8337 35.9994Z" fill="white"/>
<path d="M29.333 30.7375C29.333 29.9624 29.9614 29.334 30.7365 29.334H41.2628C42.038 29.334 42.6663 29.9624 42.6663 30.7375V41.2638C42.6663 42.0389 42.038 42.6673 41.2628 42.6673H30.7365C29.9614 42.6673 29.333 42.0389 29.333 41.2638V30.7375Z" fill="#0052FF"/>
</svg>
