<svg width="137" height="44" viewBox="0 0 137 44" fill="none" xmlns="http://www.w3.org/2000/svg">
<path d="M30.1653 14.3302C25.4762 14.3302 21.8124 17.9294 21.8124 22.7477C21.8124 27.566 25.3836 31.1344 30.1653 31.1344C34.9469 31.1344 38.5802 27.5044 38.5802 22.7169C38.5802 17.9602 35.009 14.3302 30.1653 14.3302ZM30.1969 27.662C27.5266 27.662 25.5699 25.565 25.5699 22.7489C25.5699 19.9008 27.495 17.805 30.1653 17.805C32.8671 17.805 34.8227 19.9328 34.8227 22.7489C34.8227 25.565 32.8671 27.662 30.1969 27.662ZM39.6043 17.9922H41.9334V30.8228H45.6593V14.643H39.6043V17.9922ZM12.4355 17.8038C14.3922 17.8038 15.9446 19.0241 16.534 20.8391H20.4779C19.7631 16.9591 16.5961 14.3302 12.4671 14.3302C7.77807 14.3302 4.11426 17.9294 4.11426 22.7489C4.11426 27.5683 7.68552 31.1356 12.4671 31.1356C16.5035 31.1356 19.7327 28.5067 20.4474 24.5947H16.534C15.9751 26.4097 14.4226 27.662 12.466 27.662C9.76407 27.662 7.87063 25.565 7.87063 22.7489C7.87182 19.9008 9.73478 17.8038 12.4355 17.8038ZM110.399 21.1838L107.667 20.7775C106.363 20.5903 105.431 20.152 105.431 19.1189C105.431 17.9922 106.643 17.4294 108.288 17.4294C110.089 17.4294 111.238 18.2114 111.486 19.4944H115.088C114.684 16.24 112.2 14.3314 108.381 14.3314C104.438 14.3314 101.83 16.3656 101.83 19.2445C101.83 21.9978 103.538 23.5948 106.984 24.0947L109.716 24.5011C111.052 24.6883 111.797 25.2214 111.797 26.2225C111.797 27.5056 110.493 28.0375 108.692 28.0375C106.487 28.0375 105.245 27.13 105.059 25.7534H101.395C101.737 28.9142 104.189 31.1356 108.66 31.1356C112.728 31.1356 115.429 29.2578 115.429 26.0341C115.429 23.1552 113.474 21.653 110.399 21.1838ZM43.7963 7.97767C42.4302 7.97767 41.4052 8.97877 41.4052 10.3554C41.4052 11.7321 42.4291 12.7332 43.7963 12.7332C45.1625 12.7332 46.1878 11.7321 46.1878 10.3554C46.1878 8.97877 45.1625 7.97767 43.7963 7.97767ZM98.4762 20.1827C98.4762 16.6783 96.365 14.3314 91.8936 14.3314C87.6709 14.3314 85.3111 16.4911 84.8449 19.8084H88.5402C88.7265 18.5253 89.7201 17.4614 91.8317 17.4614C93.7263 17.4614 94.6576 18.3061 94.6576 19.3392C94.6576 20.6851 92.9492 21.0287 90.838 21.2478C87.9815 21.5606 84.4418 22.5617 84.4418 26.3173C84.4418 29.2282 86.5847 31.1048 90.0004 31.1048C92.6704 31.1048 94.3471 29.9781 95.1862 28.1939C95.3105 29.7897 96.4903 30.8228 98.1364 30.8228H100.31V27.4748H98.4772V20.1827H98.4762ZM94.8122 24.2511C94.8122 26.4109 92.9492 28.0067 90.6821 28.0067C89.2846 28.0067 88.1047 27.412 88.1047 26.1609C88.1047 24.5651 89.999 24.1267 91.738 23.9395C93.4147 23.7832 94.346 23.4076 94.8122 22.6873V24.2511ZM75.0333 14.3302C72.9524 14.3302 71.2137 15.2069 69.9719 16.6771V7.82129H66.2459V30.8228H69.9095V28.695C71.1514 30.2281 72.9221 31.1356 75.0333 31.1356C79.5043 31.1356 82.8894 27.5683 82.8894 22.7489C82.8894 17.9294 79.4423 14.3302 75.0333 14.3302ZM74.4745 27.662C71.8042 27.662 69.8476 25.565 69.8476 22.7489C69.8476 19.9328 71.8348 17.805 74.5048 17.805C77.2068 17.805 79.1 19.902 79.1 22.7489C79.1 25.565 77.1445 27.662 74.4745 27.662ZM57.3339 14.3302C54.9121 14.3302 53.328 15.3313 52.3967 16.7399V14.643H48.7011V30.8216H52.427V22.0286C52.427 19.556 53.9794 17.8038 56.2772 17.8038C58.4201 17.8038 59.7546 19.3369 59.7546 21.5594V30.8228H63.4805V21.2786C63.4819 17.2091 61.4021 14.3302 57.3339 14.3302ZM133.19 22.217C133.19 17.5858 129.837 14.3314 125.334 14.3314C120.553 14.3314 117.044 17.9614 117.044 22.7489C117.044 27.7875 120.801 31.1356 125.397 31.1356C129.278 31.1356 132.321 28.8194 133.097 25.5342H129.215C128.656 26.9736 127.29 27.7875 125.458 27.7875C123.066 27.7875 121.265 26.2853 120.862 23.6564H133.189V22.217H133.19ZM121.08 20.9647C121.671 18.7113 123.347 17.6166 125.272 17.6166C127.384 17.6166 128.998 18.8369 129.371 20.9647H121.08Z" fill="white"/>
</svg>
