<svg width="56" height="56" viewBox="0 0 56 56" fill="none" xmlns="http://www.w3.org/2000/svg">
<g clip-path="url(#clip0_1497_1868)">
<path d="M46.6021 0C49.7829 0 52.3484 2.653 52.5 5.775V56L46.4437 50.6963L43.1181 47.5743L39.4893 44.3123L41.0051 49.4573H9.24634C6.07454 49.4573 3.5 46.9723 3.5 43.68V5.78667C3.5 2.66467 6.07907 0.007 9.25765 0.007H46.5862L46.6021 0ZM32.7611 13.2603H32.6932L32.2362 13.727C36.9261 15.127 39.1952 17.3133 39.1952 17.3133C36.1727 15.7547 33.4488 14.9753 30.725 14.6603C28.7568 14.3453 26.7885 14.511 25.1257 14.6603H24.6732C23.6099 14.6603 21.3476 15.127 18.3161 16.3753C17.2595 16.849 16.6532 17.1593 16.6532 17.1593C16.6532 17.1593 18.9201 14.8213 23.9153 13.573L23.6099 13.258C23.6099 13.258 19.8273 13.1087 15.7438 16.2213C15.7438 16.2213 11.6603 23.5573 11.6603 32.6013C11.6603 32.6013 13.9226 36.6613 20.1282 36.8153C20.1282 36.8153 21.0331 35.5717 21.9494 34.4773C18.4654 33.3853 17.108 31.2013 17.108 31.2013C17.108 31.2013 17.4111 31.3553 17.8659 31.668H18.0016C18.0695 31.668 18.1011 31.703 18.1373 31.738V31.752C18.1735 31.7893 18.2052 31.822 18.2731 31.822C19.0196 32.1393 19.7662 32.452 20.377 32.7553C21.4313 33.2267 22.7864 33.6957 24.4493 34.006C26.5532 34.321 28.9649 34.4727 31.7114 34.006C33.0688 33.691 34.4262 33.383 35.7836 32.7577C36.6659 32.291 37.7518 31.8243 38.9441 31.038C38.9441 31.038 37.5867 33.222 33.9556 34.314C34.7022 35.4013 35.7542 36.6473 35.7542 36.6473C41.962 36.5073 44.3737 32.4473 44.5094 32.62C44.5094 23.59 40.4033 16.24 40.4033 16.24C36.7043 13.4073 33.243 13.3 32.6321 13.3L32.7588 13.2533L32.7611 13.2603ZM33.1412 23.5573C34.7316 23.5573 36.0143 24.9573 36.0143 26.6723C36.0143 28.399 34.7248 29.799 33.1412 29.799C31.5575 29.799 30.268 28.399 30.268 26.6863C30.2725 24.9597 31.5643 23.5643 33.1412 23.5643V23.5573ZM22.8634 23.5573C24.447 23.5573 25.7275 24.9573 25.7275 26.6723C25.7275 28.399 24.4379 29.799 22.8543 29.799C21.2707 29.799 19.9811 28.399 19.9811 26.6863C19.9811 24.9597 21.2707 23.5643 22.8543 23.5643L22.8634 23.5573Z" fill="white"/>
</g>
<defs>
<clipPath id="clip0_1497_1868">
<rect width="56" height="56" fill="white"/>
</clipPath>
</defs>
</svg>
