<svg width="56" height="56" viewBox="0 0 56 56" fill="none" xmlns="http://www.w3.org/2000/svg">
<g clip-path="url(#clip0_1497_1040)">
<path d="M28 0C12.53 0 0 12.8553 0 28.7109C0 41.3987 8.022 52.1582 19.145 55.9504C20.545 56.2208 21.0583 55.3331 21.0583 54.5699C21.0583 53.888 21.035 52.0816 21.0233 49.689C13.2347 51.4212 11.592 45.837 11.592 45.837C10.318 42.5233 8.477 41.638 8.477 41.638C5.94067 39.8579 8.673 39.8938 8.673 39.8938C11.4847 40.0948 12.9617 42.851 12.9617 42.851C15.4583 47.2414 19.516 45.9733 21.1167 45.2388C21.3687 43.3822 22.0897 42.1165 22.89 41.3987C16.6717 40.681 10.136 38.2118 10.136 27.2108C10.136 24.0765 11.221 21.5164 13.0177 19.5067C12.7027 18.7817 11.7577 15.8628 13.2627 11.9079C13.2627 11.9079 15.6077 11.1374 20.9627 14.8507C23.2027 14.2119 25.5827 13.8961 27.9627 13.8817C30.3427 13.8961 32.7227 14.2119 34.9627 14.8507C40.2827 11.1374 42.6277 11.9079 42.6277 11.9079C44.1327 15.8628 43.1877 18.7817 42.9077 19.5067C44.6927 21.5164 45.7777 24.0765 45.7777 27.2108C45.7777 38.2405 39.2327 40.669 33.0027 41.3748C33.9827 42.2361 34.8927 43.9971 34.8927 46.6863C34.8927 50.5288 34.8577 53.6152 34.8577 54.5483C34.8577 55.302 35.3477 56.1992 36.7827 55.9121C47.985 52.1462 56 41.3796 56 28.7109C56 12.8553 43.463 0 28 0" fill="white"/>
</g>
<defs>
<clipPath id="clip0_1497_1040">
<rect width="56" height="56" fill="white"/>
</clipPath>
</defs>
</svg>
