<svg width="72" height="72" viewBox="0 0 72 72" fill="none" xmlns="http://www.w3.org/2000/svg">
<path d="M36 6C19.4609 6 6 19.4087 6 36C6 52.5391 19.4087 66 36 66C52.5913 66 66 52.5913 66 36C66 19.4609 52.5391 6 36 6ZM57.9652 37.6174H44.0348C43.0956 42.2087 38.6609 45.1826 34.0696 44.2435C29.4783 43.3043 26.5043 38.8696 27.4435 34.2783C28.3826 29.6869 32.8174 26.713 37.4087 27.6522C40.9043 28.3304 43.5652 31.1478 44.1391 34.6957H57.9652C58.8 34.6957 59.4261 35.3739 59.4261 36.1565C59.4261 36.9913 58.7478 37.6174 57.9652 37.6174Z" fill="black"/>
</svg>
