<svg width="1728" height="1728" viewBox="0 0 1728 1728" fill="none" xmlns="http://www.w3.org/2000/svg">
<g clip-path="url(#clip0_1731_27178)">
<path fill-rule="evenodd" clip-rule="evenodd" d="M838 834.576C837.312 837.052 836.645 839.536 836 842.029V954H827V1019.01C829.656 1036.51 833.344 1053.67 838 1070.42V954V834.576ZM854 1117.44C849.976 1107.51 846.304 1097.4 843 1087.12V955H854V1117.44ZM870 1152.42C866.116 1144.84 862.447 1137.12 859 1129.28V956H870V1152.42ZM886 1181.01C882.179 1174.74 878.511 1168.37 875 1161.91V955H886V1181.01ZM902 1205.39C898.215 1200.02 894.547 1194.56 891 1189.01V953H900V702.474C900.663 701.517 901.33 700.563 902 699.612V953V1205.39ZM918 1226.69C914.238 1221.99 910.57 1217.2 907 1212.34V957H918V1226.69ZM934 1245.6C930.254 1241.42 926.586 1237.16 923 1232.84V952H932V661.649C932.664 660.897 933.331 660.147 934 659.4V952V954V1245.6ZM950 1262.55C946.265 1258.79 942.598 1254.97 939 1251.09V954H948V644.477C948.664 643.801 949.331 643.127 950 642.455V954V1262.55ZM966 1277.83C962.274 1274.45 958.607 1271 955 1267.49V954H964V628.994C964.665 628.382 965.331 627.773 966 627.165V954V1277.83ZM982 1291.69C978.282 1288.62 974.614 1285.5 971 1282.31V955H982V1291.69ZM998 1304.28C994.287 1301.5 990.62 1298.65 987 1295.76V956H998V1304.28ZM1014 1315.74C1010.29 1313.21 1006.63 1310.62 1003 1307.98V953H1012V590.636C1012.67 590.177 1013.33 589.719 1014 589.263V953V954V1315.74ZM1030 1326.16C1026.3 1323.86 1022.63 1321.51 1019 1319.1V955H1030V1326.16ZM1046 1335.63C1042.3 1333.54 1038.63 1331.41 1035 1329.22V956H1046V1335.63ZM1062 1344.22C1058.3 1342.33 1054.64 1340.39 1051 1338.41V954H1060V561.81C1060.67 561.466 1061.33 561.124 1062 560.783V954V1344.22ZM1078 1351.98C1074.31 1350.28 1070.64 1348.53 1067 1346.73V954H1076V553.95C1076.67 553.639 1077.33 553.331 1078 553.023V954V1351.98ZM1094 1358.95C1090.31 1357.43 1086.64 1355.86 1083 1354.24V955H1094V1358.95ZM1110 1365.19C1106.31 1363.83 1102.64 1362.43 1099 1360.98V952H1108V540.55C1108.67 540.302 1109.33 540.055 1110 539.81V952V954V1365.19ZM1126 1370.72C1122.31 1369.52 1118.64 1368.28 1115 1366.99V955H1126V1370.72ZM1142 1375.56C1138.31 1374.52 1134.65 1373.43 1131 1372.3V953H1140V530.01C1140.67 529.819 1141.33 529.629 1142 529.441V953V954V1375.56ZM1158 1379.74C1154.32 1378.85 1150.65 1377.92 1147 1376.94V954H1156V525.744C1156.67 525.58 1157.33 525.418 1158 525.256V954V1379.74ZM1174 1383.29C1170.32 1382.55 1166.65 1381.76 1163 1380.92V953H1172V522.12C1172.67 521.982 1173.33 521.845 1174 521.711V953V954V1383.29ZM1190 1386.21C1186.32 1385.61 1182.65 1384.96 1179 1384.27V956H1190V1386.21ZM1206 1388.53C1202.32 1388.07 1198.65 1387.56 1195 1387V954H1204V516.727C1204.67 516.64 1205.33 516.555 1206 516.471V954V1388.53ZM1222 1390.25C1218.32 1389.92 1214.65 1389.55 1211 1389.13V955H1222V1390.25ZM1235 1391.21C1232.33 1391.06 1229.66 1390.87 1227 1390.67V955H1235V1391.21ZM1249 1391.83C1246.33 1391.75 1243.66 1391.65 1241 1391.53V954H1240V513.517C1240.67 513.485 1241.33 513.454 1242 513.425V954H1249V1391.83ZM1262 1392C1261.83 1392 1261.67 1392 1261.5 1392C1260.67 1392 1259.83 1392 1259 1391.99V952H1262V1392ZM1266 1391.98C1265.33 1391.98 1264.67 1391.99 1264 1391.99V955H1266V1391.98ZM1274 1391.83C1273.33 1391.84 1272.67 1391.86 1272 1391.88V513.123C1272.67 513.139 1273.33 513.156 1274 513.174V1391.83ZM1286 1391.33C1285.33 1391.37 1284.67 1391.4 1284 1391.43V513.566C1284.67 513.6 1285.33 513.635 1286 513.671V1391.33ZM1290 1391.09C1289.33 1391.13 1288.67 1391.17 1288 1391.21V513.786C1288.67 513.825 1289.33 513.867 1290 513.909V1391.09ZM1302 1390.16C1301.33 1390.22 1300.67 1390.28 1300 1390.34V514.663C1300.67 514.721 1301.33 514.78 1302 514.841V1390.16ZM1306 1389.78C1305.33 1389.84 1304.67 1389.91 1304 1389.97V515.029C1304.67 515.093 1305.33 515.158 1306 515.225V1389.78ZM1318 1388.4C1317.33 1388.49 1316.67 1388.57 1316 1388.65V516.346C1316.67 516.428 1317.33 516.512 1318 516.598V1388.4ZM1322 1387.87C1321.33 1387.96 1320.67 1388.05 1320 1388.14V516.859C1320.67 516.948 1321.33 517.038 1322 517.13V1387.87ZM1334 1386.05C1333.33 1386.16 1332.67 1386.27 1332 1386.38V518.624C1332.67 518.732 1333.33 518.841 1334 518.952V1386.05ZM1338 1385.37C1337.33 1385.48 1336.67 1385.6 1336 1385.71V519.288C1336.67 519.402 1337.33 519.518 1338 519.635V1385.37ZM1350 1383.09C1349.33 1383.22 1348.67 1383.36 1348 1383.49V521.51C1348.67 521.643 1349.33 521.778 1350 521.914V1383.09ZM1354 1382.25C1353.33 1382.39 1352.67 1382.53 1352 1382.67V522.328C1352.67 522.467 1353.33 522.608 1354 522.751V1382.25ZM1366 1379.5C1365.33 1379.66 1364.67 1379.82 1364 1379.98V525.016C1364.67 525.176 1365.33 525.337 1366 525.499V1379.5ZM1370 1378.51C1369.33 1378.67 1368.67 1378.84 1368 1379.01V525.992C1368.67 526.158 1369.33 526.326 1370 526.495V1378.51ZM1382 1375.28C1381.33 1375.47 1380.67 1375.65 1380 1375.84V529.161C1380.67 529.347 1381.33 529.535 1382 529.724V1375.28ZM1386 1374.12C1385.33 1374.31 1384.67 1374.51 1384 1374.7V530.298C1384.67 530.492 1385.33 530.687 1386 530.883V1374.12ZM1398 1370.39C1397.33 1370.61 1396.67 1370.82 1396 1371.04V533.962C1396.67 534.176 1397.33 534.392 1398 534.61V1370.39ZM1402 1369.06C1401.33 1369.29 1400.67 1369.51 1400 1369.73V535.268C1400.67 535.489 1401.33 535.712 1402 535.937V1369.06ZM1414 1364.82C1413.33 1365.07 1412.67 1365.31 1412 1365.56V539.444C1412.67 539.687 1413.33 539.932 1414 540.179V1364.82ZM1418 1363.32C1417.33 1363.57 1416.67 1363.83 1416 1364.08V540.924C1416.67 541.175 1417.33 541.427 1418 541.681V1363.32ZM1430 1358.54C1429.33 1358.82 1428.67 1359.09 1428 1359.37V545.634C1428.67 545.908 1429.33 546.183 1430 546.459V1358.54ZM1434 1356.86C1433.33 1357.14 1432.67 1357.42 1432 1357.7V547.296C1432.67 547.577 1433.33 547.86 1434 548.145V1356.86ZM1446 1351.51C1445.33 1351.82 1444.67 1352.13 1444 1352.44V552.565C1444.67 552.87 1445.33 553.177 1446 553.485V1351.51ZM1450 1349.64C1449.33 1349.95 1448.67 1350.27 1448 1350.58V554.418C1448.67 554.731 1449.33 555.046 1450 555.362V1349.64ZM1462 1343.71C1461.33 1344.05 1460.67 1344.39 1460 1344.73V560.274C1460.67 560.613 1461.33 560.953 1462 561.295V1343.71ZM1466 1341.62C1465.33 1341.98 1464.67 1342.32 1464 1342.67V562.329C1464.67 562.676 1465.33 563.025 1466 563.375V1341.62ZM1478 1335.06C1477.33 1335.44 1476.67 1335.82 1476 1336.19V568.808C1476.67 569.182 1477.33 569.558 1478 569.936V1335.06ZM1482 1332.77C1481.33 1333.15 1480.67 1333.54 1480 1333.92V571.077C1480.67 571.46 1481.33 571.845 1482 572.232V1332.77ZM1494 1325.54C1493.33 1325.95 1492.67 1326.37 1492 1326.78V578.222C1492.67 578.634 1493.33 579.048 1494 579.464V1325.54ZM1498 1323.01C1497.33 1323.43 1496.67 1323.86 1496 1324.28V580.72C1496.67 581.143 1497.33 581.567 1498 581.992V1323.01ZM1510 1315.05C1509.33 1315.51 1508.67 1315.96 1508 1316.42V588.582C1508.67 589.035 1509.33 589.491 1510 589.947V1315.05ZM1514 1312.27C1513.33 1312.74 1512.67 1313.21 1512 1313.67V591.329C1512.67 591.793 1513.33 592.259 1514 592.727V1312.27ZM1526 1303.53C1525.33 1304.03 1524.67 1304.53 1524 1305.03V599.97C1524.67 600.468 1525.33 600.968 1526 601.47V1303.53ZM1530 1300.48C1529.33 1300.99 1528.67 1301.5 1528 1302.01V602.988C1528.67 603.499 1529.33 604.011 1530 604.525V1300.48ZM1542 1290.86C1541.33 1291.42 1540.67 1291.97 1540 1292.51V612.486C1540.67 613.034 1541.33 613.584 1542 614.136V1290.86ZM1546 1287.5C1545.34 1288.07 1544.67 1288.63 1544 1289.19V615.806C1544.67 616.367 1545.34 616.931 1546 617.496V1287.5ZM1558 1276.92C1557.34 1277.53 1556.67 1278.14 1556 1278.74V626.259C1556.67 626.863 1557.34 627.469 1558 628.077V1276.92ZM1562 1273.22C1561.34 1273.84 1560.67 1274.46 1560 1275.08V629.917C1560.67 630.536 1561.34 631.157 1562 631.78V1273.22ZM1574 1261.54C1573.34 1262.21 1572.67 1262.88 1572 1263.55V641.453C1572.67 642.121 1573.34 642.791 1574 643.463V1261.54ZM1578 1257.44C1577.34 1258.13 1576.67 1258.82 1576 1259.5V645.498C1576.67 646.183 1577.34 646.871 1578 647.56V1257.44ZM1590 1244.48C1589.34 1245.23 1588.67 1245.97 1588 1246.71V658.287C1588.67 659.029 1589.34 659.774 1590 660.52V1244.48ZM1594 1239.92C1593.34 1240.69 1592.67 1241.45 1592 1242.22V662.784C1592.67 663.547 1593.34 664.313 1594 665.08V1239.92ZM1606 1225.44C1605.34 1226.27 1604.67 1227.11 1604 1227.94V677.059C1604.67 677.891 1605.34 678.725 1606 679.562V1225.44ZM1610 1220.32C1609.34 1221.18 1608.67 1222.04 1608 1222.9V682.102C1608.67 682.959 1609.34 683.818 1610 684.681V1220.32ZM1622 1203.96C1621.34 1204.91 1620.67 1205.86 1620 1206.8V698.199C1620.67 699.142 1621.34 700.088 1622 701.037V1203.96ZM1626 1198.14C1625.34 1199.12 1624.67 1200.1 1624 1201.08V703.923C1624.67 704.899 1625.34 705.878 1626 706.86V1198.14ZM1638 1179.36C1637.34 1180.46 1636.67 1181.55 1636 1182.64V722.36C1636.67 723.45 1637.34 724.544 1638 725.64V1179.36ZM1642 1172.6C1641.34 1173.74 1640.67 1174.88 1640 1176.01V728.985C1640.67 730.12 1641.34 731.259 1642 732.4V1172.6ZM1654 1150.46C1653.34 1151.76 1652.67 1153.07 1652 1154.37V750.633C1652.67 751.932 1653.34 753.235 1654 754.542V1150.46ZM1658 1142.34C1657.34 1143.71 1656.67 1145.08 1656 1146.45V758.55C1656.67 759.918 1657.34 761.289 1658 762.665V1142.34ZM1670 1114.95C1669.34 1116.6 1668.68 1118.25 1668 1119.89V785.11C1668.68 786.751 1669.34 788.396 1670 790.047V1114.95ZM1674 1104.52C1673.34 1106.29 1672.68 1108.07 1672 1109.83V795.165C1672.68 796.933 1673.34 798.705 1674 800.484V1104.52ZM1686 1066.76C1685.35 1069.17 1684.69 1071.57 1684 1073.97V831.035C1684.69 833.427 1685.35 835.828 1686 838.237V1066.76ZM1690 1050.65C1689.36 1053.45 1688.69 1056.25 1688 1059.03V845.967C1688.69 848.752 1689.36 851.547 1690 854.353V1050.65ZM1700 982.384C1700.66 972.509 1701 962.544 1701 952.5C1701 942.456 1700.66 932.492 1700 922.616V982.384ZM1254 513.063C1253.33 513.074 1252.67 513.087 1252 513.101V954H1254V513.063ZM1256 513.034C1256.67 513.026 1257.33 513.019 1258 513.014V954H1256V513.034ZM1268 513.047C1268.67 513.057 1269.33 513.068 1270 513.081V954H1268V513.047ZM1208 516.223V954H1210V515.985C1209.33 516.063 1208.67 516.143 1208 516.223ZM1220 514.934C1220.67 514.871 1221.33 514.81 1222 514.751V954H1220V514.934ZM1224 514.577C1224.67 514.521 1225.33 514.466 1226 514.413V954H1224V514.577ZM1236 513.727C1236.67 513.689 1237.33 513.653 1238 513.618V954H1236V513.727ZM1176 521.311V954H1178V520.922C1177.33 521.05 1176.67 521.18 1176 521.311ZM1188 519.119C1188.67 519.007 1189.33 518.896 1190 518.787V954H1188V519.119ZM1192 518.464C1192.67 518.358 1193.33 518.254 1194 518.151V954H1192V518.464ZM1160 524.779V954H1162V524.311C1161.33 524.465 1160.67 524.621 1160 524.779ZM1144 528.882V954H1146V528.334C1145.33 528.515 1144.67 528.698 1144 528.882ZM1112 539.081V954H1114V538.363C1113.33 538.601 1112.67 538.84 1112 539.081ZM1124 534.937C1124.67 534.718 1125.33 534.501 1126 534.284V954H1124V534.937ZM1128 533.642C1128.67 533.43 1129.33 533.22 1130 533.011V954H1128V533.642ZM1080 552.109V954H1082V551.207C1081.33 551.506 1080.67 551.807 1080 552.109ZM1092 546.876C1092.67 546.598 1093.33 546.321 1094 546.045V954H1092V546.876ZM1096 545.226C1096.67 544.955 1097.33 544.686 1098 544.418V954H1096V545.226ZM1064 559.769V954H1066V558.767C1065.33 559.1 1064.67 559.433 1064 559.769ZM1016 587.905V954H1018V586.564C1017.33 587.009 1016.67 587.456 1016 587.905ZM1028 580.09C1028.67 579.672 1029.33 579.256 1030 578.841V954H1028V580.09ZM1032 577.607C1032.67 577.199 1033.33 576.792 1034 576.387V954H1032V577.607ZM1044 570.505C1044.67 570.125 1045.33 569.747 1046 569.37V954H1044V570.505ZM1048 568.25C1048.67 567.879 1049.33 567.51 1050 567.143V954H1048V568.25ZM968 625.359V954H970V623.574C969.332 624.167 968.665 624.762 968 625.359ZM980 614.968C980.665 614.413 981.332 613.86 982 613.309V954H980V614.968ZM984 611.669C984.665 611.126 985.332 610.586 986 610.048V954H984V611.669ZM996 602.227C996.665 601.722 997.332 601.219 998 600.718V954H996V602.227ZM1000 599.226C1000.67 598.733 1001.33 598.241 1002 597.752V954H1000V599.226ZM952 640.458V954H954V638.487C953.331 639.142 952.665 639.799 952 640.458ZM936 657.182V954H938V654.994C937.331 655.721 936.664 656.45 936 657.182ZM904 696.798V954H906V694.029C905.33 694.949 904.663 695.872 904 696.798ZM916 680.827C916.664 679.984 917.33 679.144 918 678.306V954H916V680.827ZM920 675.822C920.664 675.004 921.33 674.188 922 673.375V954H920V675.822ZM840 827.603V954H842V821.034C841.317 823.217 840.65 825.406 840 827.603ZM852 792.582C852.657 790.902 853.323 789.227 854 787.557V954H852V792.582ZM856 782.705C856.658 781.135 857.325 779.571 858 778.011V954H856V782.705ZM868 756.533C868.66 755.21 869.327 753.891 870 752.575V954H868V756.533ZM872 748.714C872.661 747.454 873.327 746.197 874 744.944V954H872V748.714ZM884 727.304C884.662 726.197 885.329 725.093 886 723.992V954H884V727.304ZM888 720.744C888.662 719.679 889.329 718.617 890 717.558V953H888V720.744ZM824 910.298V954H826V892.952C825.221 898.699 824.554 904.482 824 910.298Z" fill="#2C2C2C"/>
<path fill-rule="evenodd" clip-rule="evenodd" d="M775 954.671C775.666 954.635 776.333 954.6 777 954.566V1832.43C776.333 1832.4 775.666 1832.37 775 1832.33V954.671ZM771 1832.09C771.666 1832.13 772.333 1832.17 773 1832.21V954.786C772.333 954.825 771.666 954.867 771 954.909V1832.09ZM759 1831.16C759.666 1831.22 760.333 1831.28 761 1831.34V955.663C760.333 955.721 759.666 955.78 759 955.841V1831.16ZM755 1830.78C755.666 1830.84 756.333 1830.91 757 1830.97V956.028C756.333 956.093 755.666 956.158 755 956.225V1830.78ZM743 1829.4C743.666 1829.49 744.333 1829.57 745 1829.65V957.346C744.333 957.428 743.666 957.512 743 957.598V1829.4ZM739 1828.87C739.666 1828.96 740.333 1829.05 741 1829.14V957.859C740.333 957.948 739.666 958.038 739 958.13V1828.87ZM727 1827.05C727.666 1827.16 728.333 1827.27 729 1827.38V959.624C728.333 959.732 727.666 959.841 727 959.952V1827.05ZM723 1826.37C723.666 1826.48 724.333 1826.6 725 1826.71V960.288C724.333 960.402 723.666 960.518 723 960.635V1826.37ZM711 1824.09C711.666 1824.22 712.333 1824.36 713 1824.49V962.51C712.333 962.643 711.666 962.778 711 962.914V1824.09ZM707 1823.25C707.666 1823.39 708.333 1823.53 709 1823.67V963.328C708.333 963.467 707.666 963.608 707 963.751V1823.25ZM695 1820.5C695.666 1820.66 696.333 1820.82 697 1820.98V966.016C696.333 966.176 695.666 966.337 695 966.499V1820.5ZM691 1819.51C691.666 1819.67 692.333 1819.84 693 1820.01V966.992C692.333 967.158 691.666 967.326 691 967.495V1819.51ZM679 1816.28C679.666 1816.47 680.333 1816.65 681 1816.84V970.16C680.333 970.347 679.666 970.535 679 970.724V1816.28ZM675 1815.12C675.666 1815.31 676.333 1815.51 677 1815.7V971.298C676.333 971.492 675.666 971.687 675 971.883V1815.12ZM663 1811.39C663.666 1811.61 664.333 1811.82 665 1812.04V974.962C664.333 975.176 663.666 975.392 663 975.61V1811.39ZM659 1810.06C659.666 1810.29 660.333 1810.51 661 1810.73V976.268C660.333 976.489 659.666 976.712 659 976.937V1810.06ZM647 1805.82C647.666 1806.07 648.333 1806.31 649 1806.56V980.444C648.333 980.687 647.666 980.932 647 981.179V1805.82ZM643 1804.32C643.666 1804.57 644.333 1804.83 645 1805.08V981.924C644.333 982.175 643.666 982.427 643 982.681V1804.32ZM631 1799.54C631.666 1799.82 632.333 1800.09 633 1800.37V986.634C632.333 986.908 631.666 987.183 631 987.459V1799.54ZM627 1797.86C627.666 1798.14 628.333 1798.42 629 1798.7V988.296C628.333 988.577 627.666 988.86 627 989.145V1797.86ZM615 1792.51C615.666 1792.82 616.332 1793.13 617 1793.44V993.565C616.332 993.87 615.666 994.177 615 994.485V1792.51ZM611 1790.64C611.666 1790.95 612.332 1791.27 613 1791.58V995.418C612.332 995.731 611.666 996.046 611 996.362V1790.64ZM599 1784.71C599.666 1785.05 600.332 1785.39 601 1785.73V1001.27C600.332 1001.61 599.666 1001.95 599 1002.29V1784.71ZM595 1782.62C595.666 1782.98 596.332 1783.32 597 1783.67V1003.33C596.332 1003.68 595.666 1004.02 595 1004.38V1782.62ZM583 1776.06C583.666 1776.44 584.332 1776.82 585 1777.19V1009.81C584.332 1010.18 583.666 1010.56 583 1010.94V1776.06ZM579 1773.77C579.666 1774.15 580.332 1774.54 581 1774.92V1012.08C580.332 1012.46 579.666 1012.85 579 1013.23V1773.77ZM567 1766.54C567.665 1766.95 568.332 1767.37 569 1767.78V1019.22C568.332 1019.63 567.665 1020.05 567 1020.46V1766.54ZM563 1764.01C563.665 1764.43 564.332 1764.86 565 1765.28V1021.72C564.332 1022.14 563.665 1022.57 563 1022.99V1764.01ZM551 1756.05C551.665 1756.51 552.332 1756.96 553 1757.42V1029.58C552.332 1030.04 551.665 1030.49 551 1030.95V1756.05ZM547 1753.27C547.665 1753.74 548.332 1754.21 549 1754.67V1032.33C548.332 1032.79 547.665 1033.26 547 1033.73V1753.27ZM535 1744.53C535.665 1745.03 536.332 1745.53 537 1746.03V1040.97C536.332 1041.47 535.665 1041.97 535 1042.47V1744.53ZM531 1741.48C531.665 1741.99 532.332 1742.5 533 1743.01V1043.99C532.332 1044.5 531.665 1045.01 531 1045.52V1741.48ZM519 1731.86C519.665 1732.42 520.332 1732.97 521 1733.51V1053.49C520.332 1054.03 519.665 1054.58 519 1055.14V1731.86ZM515 1728.5C515.665 1729.07 516.332 1729.63 517 1730.19V1056.81C516.332 1057.37 515.665 1057.93 515 1058.5V1728.5ZM503 1717.92C503.665 1718.53 504.331 1719.14 505 1719.74V1067.26C504.331 1067.86 503.665 1068.47 503 1069.08V1717.92ZM499 1714.22C499.665 1714.84 500.331 1715.46 501 1716.08V1070.92C500.331 1071.54 499.665 1072.16 499 1072.78V1714.22ZM487 1702.54C487.664 1703.21 488.331 1703.88 489 1704.55V1082.45C488.331 1083.12 487.664 1083.79 487 1084.46V1702.54ZM483 1698.44C483.664 1699.13 484.331 1699.82 485 1700.5V1086.5C484.331 1087.18 483.664 1087.87 483 1088.56V1698.44ZM471 1685.48C471.664 1686.23 472.331 1686.97 473 1687.71V1099.29C472.331 1100.03 471.664 1100.77 471 1101.52V1685.48ZM467 1680.92C467.664 1681.69 468.331 1682.45 469 1683.22V1103.78C468.331 1104.55 467.664 1105.31 467 1106.08V1680.92ZM455 1666.44C455.664 1667.27 456.33 1668.11 457 1668.94V1118.06C456.33 1118.89 455.664 1119.73 455 1120.56V1666.44ZM451 1661.32C451.664 1662.18 452.33 1663.04 453 1663.9V1123.1C452.33 1123.96 451.664 1124.82 451 1125.68V1661.32ZM439 1644.96C439.663 1645.91 440.33 1646.86 441 1647.8V1139.2C440.33 1140.14 439.663 1141.09 439 1142.04V1644.96ZM435 1639.14C435.663 1640.12 436.329 1641.1 437 1642.08V1144.92C436.329 1145.9 435.663 1146.88 435 1147.86V1639.14ZM423 1620.36C423.662 1621.46 424.329 1622.55 425 1623.64V1163.36C424.329 1164.45 423.662 1165.54 423 1166.64V1620.36ZM419 1613.6C419.662 1614.74 420.328 1615.88 421 1617.01V1169.99C420.328 1171.12 419.662 1172.26 419 1173.4V1613.6ZM407 1591.46C407.66 1592.76 408.327 1594.07 409 1595.37V1191.63C408.327 1192.93 407.66 1194.24 407 1195.54V1591.46ZM403 1583.34C403.66 1584.71 404.326 1586.08 405 1587.45V1199.55C404.326 1200.92 403.66 1202.29 403 1203.66V1583.34ZM391 1555.95C391.657 1557.6 392.324 1559.25 393 1560.89V1226.11C392.324 1227.75 391.657 1229.4 391 1231.05V1555.95ZM387 1545.52C387.656 1547.29 388.322 1549.07 389 1550.83V1236.17C388.322 1237.93 387.656 1239.71 387 1241.48V1545.52ZM375 1507.76C375.647 1510.17 376.313 1512.57 377 1514.96V1272.04C376.313 1274.43 375.647 1276.83 375 1279.24V1507.76ZM371 1491.65C371.64 1494.45 372.307 1497.25 373 1500.03V1286.97C372.307 1289.75 371.64 1292.55 371 1295.35V1491.65ZM361 1423.38C360.337 1413.51 360 1403.54 360 1393.5C360 1383.46 360.337 1373.49 361 1363.62V1423.38ZM787 1832.83V954.174C787.666 954.156 788.333 954.139 789 954.123V1832.88C788.333 1832.86 787.666 1832.84 787 1832.83ZM795 1832.98V1396H797V1832.99C796.333 1832.99 795.666 1832.98 795 1832.98ZM799 1833V1396H802V1832.99C801.167 1833 800.334 1833 799.5 1833C799.333 1833 799.167 1833 799 1833ZM809 1832.9V954.101C812.678 954.179 816.345 954.302 820 954.47V1832.53C816.345 1832.7 812.678 1832.82 809 1832.9ZM826 1832.21V1395H834V1831.67C831.34 1831.87 828.673 1832.06 826 1832.21ZM839 1831.25V1396H850V1830.13C846.347 1830.55 842.68 1830.92 839 1831.25ZM855 1829.53V1396H866V1828C862.348 1828.56 858.681 1829.07 855 1829.53ZM871 1827.21V1398H882V1825.27C878.349 1825.96 874.682 1826.61 871 1827.21ZM887 1824.29V1396H898V1821.92C894.35 1822.76 890.684 1823.55 887 1824.29ZM903 1820.74V1396H914V1817.94C910.352 1818.92 906.685 1819.85 903 1820.74ZM919 1816.56V1397H930V1813.3C926.353 1814.43 922.687 1815.52 919 1816.56ZM935 1811.72V1396H946V1807.99C942.355 1809.28 938.688 1810.52 935 1811.72ZM951 1806.19V1396H962V1801.98C958.357 1803.43 954.69 1804.83 951 1806.19ZM967 1799.95V1396H978V1795.24C974.359 1796.86 970.692 1798.43 967 1799.95ZM983 1792.98V1397H994V1787.73C990.362 1789.53 986.695 1791.28 983 1792.98ZM999 1785.22V1396H1010V1779.41C1006.36 1781.39 1002.7 1783.33 999 1785.22ZM1015 1776.63V1398H1026V1770.22C1022.37 1772.41 1018.7 1774.54 1015 1776.63ZM1031 1767.16V1396H1042V1760.1C1038.37 1762.51 1034.7 1764.86 1031 1767.16ZM1047 1756.74V1395H1058V1748.98C1054.37 1751.62 1050.71 1754.21 1047 1756.74ZM1063 1745.28V1395H1074V1736.76C1070.38 1739.65 1066.71 1742.5 1063 1745.28ZM1079 1732.69V1397H1090V1723.31C1086.39 1726.5 1082.72 1729.62 1079 1732.69ZM1095 1718.83V1396H1106V1708.49C1102.39 1712 1098.73 1715.45 1095 1718.83ZM1111 1703.55V1398H1122V1692.09C1118.4 1695.97 1114.73 1699.79 1111 1703.55ZM1127 1686.6V1396H1138V1673.84C1134.41 1678.16 1130.75 1682.42 1127 1686.6ZM1143 1667.69V1396H1154V1653.34C1150.43 1658.2 1146.76 1662.99 1143 1667.69ZM1159 1646.39V1396H1170V1630.01C1166.45 1635.56 1162.79 1641.02 1159 1646.39ZM1175 1622.01V1395H1186V1602.91C1182.49 1609.37 1178.82 1615.74 1175 1622.01ZM1191 1593.42V1396H1202V1570.28C1198.55 1578.12 1194.88 1585.84 1191 1593.42ZM1207 1558.44V1396H1218V1528.12C1214.7 1538.4 1211.02 1548.51 1207 1558.44ZM1223 1511.42V1396H1234V1460.01C1231.34 1477.51 1227.66 1494.67 1223 1511.42ZM805 954.034V1395H803V956H793V1395H791V954.081C793.827 954.027 796.66 954 799.5 954C801.336 954 803.169 954.011 805 954.034Z" fill="#2C2C2C"/>
<path fill-rule="evenodd" clip-rule="evenodd" d="M830 484.616C829.337 494.491 829 504.456 829 514.5C829 524.543 829.337 534.508 830 544.384L830 484.616ZM840 612.647C840.64 615.453 841.307 618.248 842 621.033L842 407.967C841.307 410.752 840.64 413.547 840 416.353L840 612.647ZM844 400.237L844 628.763C844.647 631.172 845.314 633.573 846 635.965L846 393.035C845.314 395.427 844.647 397.828 844 400.237ZM856 362.483L856 666.516C856.656 668.295 857.322 670.067 858 671.835L858 357.165C857.322 358.932 856.656 360.705 856 362.483ZM860 352.047L860 676.953C860.657 678.604 861.324 680.249 862 681.89L862 347.11C861.324 348.751 860.657 350.396 860 352.047ZM872 324.665L872 704.335C872.66 705.711 873.326 707.082 874 708.45L874 320.55C873.326 321.918 872.66 323.289 872 324.665ZM876 316.542L876 712.458C876.66 713.765 877.327 715.068 878 716.367L878 312.633C877.327 313.932 876.66 315.235 876 316.542ZM888 294.4L888 734.6C888.662 735.741 889.328 736.88 890 738.014L890 290.985C889.328 292.12 888.662 293.258 888 294.4ZM892 287.64L892 741.36C892.662 742.456 893.329 743.55 894 744.64L894 284.36C893.329 285.45 892.662 286.543 892 287.64ZM904 268.86L904 760.14C904.663 761.122 905.329 762.101 906 763.076L906 265.923C905.33 266.899 904.663 267.878 904 268.86ZM908 263.037L908 765.963C908.663 766.912 909.33 767.858 910 768.801L910 260.199C909.33 261.142 908.663 262.088 908 263.037ZM920 246.68L920 782.319C920.664 783.181 921.33 784.041 922 784.898L922 244.102C921.33 244.959 920.664 245.818 920 246.68ZM924 241.562L924 787.438C924.664 788.275 925.33 789.109 926 789.94L926 239.059C925.33 239.891 924.664 240.725 924 241.562ZM936 227.08L936 801.92C936.664 802.687 937.331 803.453 938 804.215L938 224.784C937.331 225.547 936.664 226.312 936 227.08ZM940 222.52L940 806.48C940.664 807.226 941.331 807.971 942 808.713L942 220.287C941.331 221.029 940.664 221.774 940 222.52ZM952 209.56L952 819.44C952.664 820.129 953.331 820.817 954 821.502L954 207.498C953.331 208.183 952.664 208.87 952 209.56ZM956 205.463L956 823.537C956.665 824.209 957.331 824.879 958 825.547L958 203.453C957.331 204.121 956.665 204.791 956 205.463ZM968 193.78L968 835.22C968.665 835.843 969.331 836.464 970 837.083L970 191.917C969.331 192.536 968.665 193.157 968 193.78ZM972 190.077L972 838.923C972.665 839.531 973.331 840.137 974 840.741L974 188.259C973.332 188.863 972.665 189.469 972 190.077ZM984 179.496L984 849.504C984.665 850.069 985.332 850.633 986 851.194L986 177.806C985.332 178.367 984.665 178.93 984 179.496ZM988 176.136L988 852.864C988.665 853.416 989.332 853.966 990 854.514L990 174.486C989.332 175.034 988.665 175.584 988 176.136ZM1000 166.525L1000 862.475C1000.67 862.989 1001.33 863.501 1002 864.011L1002 164.988C1001.33 165.499 1000.67 166.011 1000 166.525ZM1004 163.47L1004 865.53C1004.67 866.032 1005.33 866.532 1006 867.03L1006 161.97C1005.33 162.468 1004.67 162.968 1004 163.47ZM1016 154.727L1016 874.273C1016.67 874.741 1017.33 875.207 1018 875.671L1018 153.329C1017.33 153.793 1016.67 154.259 1016 154.727ZM1020 151.947L1020 877.052C1020.67 877.509 1021.33 877.965 1022 878.418L1022 150.582C1021.33 151.035 1020.67 151.49 1020 151.947ZM1032 143.992L1032 885.008C1032.67 885.433 1033.33 885.857 1034 886.279L1034 142.72C1033.33 143.143 1032.67 143.566 1032 143.992ZM1036 141.464L1036 887.536C1036.67 887.952 1037.33 888.366 1038 888.778L1038 140.222C1037.33 140.634 1036.67 141.048 1036 141.464ZM1048 134.232L1048 894.768C1048.67 895.155 1049.33 895.54 1050 895.923L1050 133.077C1049.33 133.46 1048.67 133.845 1048 134.232ZM1052 131.936L1052 897.064C1052.67 897.442 1053.33 897.817 1054 898.192L1054 130.808C1053.33 131.182 1052.67 131.558 1052 131.936ZM1064 125.375L1064 903.625C1064.67 903.975 1065.33 904.324 1066 904.671L1066 124.328C1065.33 124.676 1064.67 125.025 1064 125.375ZM1068 123.295L1068 905.705C1068.67 906.047 1069.33 906.387 1070 906.726L1070 122.274C1069.33 122.613 1068.67 122.953 1068 123.295ZM1080 117.362L1080 911.638C1080.67 911.954 1081.33 912.269 1082 912.582L1082 116.417C1081.33 116.731 1080.67 117.046 1080 117.362ZM1084 115.485L1084 913.515C1084.67 913.823 1085.33 914.13 1086 914.435L1086 114.565C1085.33 114.87 1084.67 115.177 1084 115.485ZM1096 110.144L1096 918.855C1096.67 919.14 1097.33 919.423 1098 919.704L1098 109.296C1097.33 109.577 1096.67 109.86 1096 110.144ZM1100 108.459L1100 920.541C1100.67 920.817 1101.33 921.092 1102 921.366L1102 107.634C1101.33 107.908 1100.67 108.183 1100 108.459ZM1112 103.681L1112 925.319C1112.67 925.573 1113.33 925.825 1114 926.076L1114 102.924C1113.33 103.175 1112.67 103.427 1112 103.681ZM1116 102.179L1116 926.821C1116.67 927.068 1117.33 927.313 1118 927.556L1118 101.444C1117.33 101.687 1116.67 101.932 1116 102.179ZM1128 97.9367L1128 931.063C1128.67 931.288 1129.33 931.511 1130 931.732L1130 97.2677C1129.33 97.4891 1128.67 97.7121 1128 97.9367ZM1132 96.6095L1132 932.39C1132.67 932.608 1133.33 932.824 1134 933.038L1134 95.962C1133.33 96.1763 1132.67 96.3921 1132 96.6095ZM1144 92.8828L1144 936.117C1144.67 936.313 1145.33 936.508 1146 936.702L1146 92.2984C1145.33 92.4917 1144.67 92.6865 1144 92.8828ZM1148 91.7243L1148 937.276C1148.67 937.465 1149.33 937.653 1150 937.839L1150 91.1604C1149.33 91.3468 1148.67 91.5348 1148 91.7243ZM1160 88.4946L1160 940.505C1160.67 940.674 1161.33 940.842 1162 941.008L1162 87.9918C1161.33 88.1579 1160.67 88.3255 1160 88.4946ZM1163 87.7442L1163 941.256C1163.67 941.42 1164.33 941.582 1165 941.743L1165 87.2564C1164.33 87.4174 1163.67 87.58 1163 87.7442ZM1175 84.9665L1175 944.033C1175.67 944.178 1176.33 944.32 1177 944.462L1177 84.5381C1176.33 84.6794 1175.67 84.8222 1175 84.9665ZM1181 83.7105L1181 945.289C1181.67 945.424 1182.33 945.557 1183 945.689L1183 83.3114C1182.33 83.4429 1181.67 83.5759 1181 83.7105ZM1193 81.4602L1193 947.54C1193.67 947.655 1194.33 947.769 1195 947.881L1195 81.1187C1194.33 81.231 1193.67 81.3448 1193 81.4602ZM1198 80.6243L1198 948.376C1198.67 948.483 1199.33 948.589 1200 948.693L1200 80.3065C1199.33 80.411 1198.67 80.5169 1198 80.6243ZM1210 78.8593L1210 950.141C1210.67 950.229 1211.33 950.316 1212 950.402L1212 78.5979C1211.33 78.6836 1210.67 78.7706 1210 78.8593ZM1214 78.3459L1214 950.654C1214.67 950.736 1215.33 950.817 1216 950.897L1216 78.1032C1215.33 78.1826 1214.67 78.2635 1214 78.3459ZM1226 77.0285L1226 951.971C1227 952.067 1228 952.16 1229 952.249L1229 76.7509C1228 76.8401 1227 76.9326 1226 77.0285ZM1239 75.9743L1239 953.026C1239.67 953.07 1240.33 953.112 1241 953.154L1241 75.8463C1240.33 75.8875 1239.67 75.9302 1239 75.9743ZM1243 75.7274L1243 953.273C1243.67 953.311 1244.33 953.347 1245 953.382L1245 75.6175C1244.33 75.6527 1243.67 75.6893 1243 75.7274ZM1255 75.2033L1255 953.797C1255.67 953.817 1256.33 953.835 1257 953.852L1257 75.1475C1256.33 75.1646 1255.67 75.1832 1255 75.2033ZM1264 75.0225L1264 512L1266 512L1266 75.0069C1265.33 75.0106 1264.67 75.0158 1264 75.0225ZM1268 75.0003L1268 512L1271 512L1271 75.0069C1270.17 75.0023 1269.33 75 1268.5 75C1268.33 75 1268.17 75.0001 1268 75.0003ZM1281 75.1743L1281 512L1289 512L1289 75.4696C1286.34 75.3475 1283.67 75.2489 1281 75.1743ZM1295 75.7857L1295 512L1303 512L1303 76.3341C1300.34 76.1276 1297.67 75.9447 1295 75.7857ZM1308 76.7509L1308 512L1319 512L1319 77.8698C1315.35 77.4519 1311.68 77.0787 1308 76.7509ZM1324 78.4708L1324 512L1335 512L1335 79.9983C1331.35 79.4439 1327.68 78.9347 1324 78.4708ZM1340 80.7867L1340 512L1351 512L1351 82.7307C1347.35 82.0374 1343.68 81.3892 1340 80.7867ZM1356 83.7105L1356 512L1367 512L1367 86.0805C1363.35 85.2449 1359.68 84.4547 1356 83.7105ZM1372 87.2564L1372 512L1383 512L1383 90.0636C1379.35 89.0819 1375.69 88.1459 1372 87.2564ZM1388 91.4411L1388 512L1399 512L1399 94.6988C1395.35 93.5664 1391.69 92.4803 1388 91.4411ZM1404 96.2844L1404 512L1415 512L1415 100.008C1411.36 98.7201 1407.69 97.4785 1404 96.2844ZM1420 101.81L1420 512L1431 512L1431 106.019C1427.36 104.568 1423.69 103.165 1420 101.81ZM1436 108.045L1436 512L1447 512L1447 112.761C1443.36 111.141 1439.69 109.569 1436 108.045ZM1452 115.023L1452 512L1463 512L1463 120.271C1459.36 118.473 1455.69 116.723 1452 115.023ZM1468 122.783L1468 512L1479 512L1479 128.595C1475.36 126.607 1471.7 124.67 1468 122.783ZM1484 131.37L1484 512L1495 512L1495 137.783C1491.37 135.594 1487.7 133.456 1484 131.37ZM1500 140.841L1500 512L1511 512L1511 147.899C1507.37 145.494 1503.7 143.141 1500 140.841ZM1516 151.263L1516 512L1527 512L1527 159.021C1523.37 156.381 1519.71 153.794 1516 151.263ZM1532 162.718L1532 512L1543 512L1543 171.245C1539.38 168.346 1535.71 165.503 1532 162.718ZM1548 175.309L1548 512L1559 512L1559 184.69C1555.39 181.504 1551.72 178.376 1548 175.309ZM1564 189.165L1564 512L1575 512L1575 199.511C1571.39 196 1567.73 192.551 1564 189.165ZM1580 204.455L1580 512L1591 512L1591 215.91C1587.4 212.026 1583.73 208.207 1580 204.455ZM1596 221.4L1596 512L1607 512L1607 234.164C1603.41 229.839 1599.75 225.583 1596 221.4ZM1612 240.306L1612 512L1623 512L1623 254.662C1619.43 249.799 1615.76 245.013 1612 240.306ZM1628 261.612L1628 512L1639 512L1639 277.988C1635.45 272.443 1631.79 266.983 1628 261.612ZM1644 285.992L1644 512L1655 512L1655 305.092C1651.49 298.625 1647.82 292.257 1644 285.992ZM1660 314.575L1660 512L1671 512L1671 337.72C1667.55 329.882 1663.88 322.165 1660 314.575ZM1676 349.557L1676 512L1687 512L1687 379.882C1683.7 369.603 1680.02 359.49 1676 349.557ZM1692 396.576L1692 512L1703 512L1703 447.989C1700.34 430.491 1696.66 413.332 1692 396.576ZM1706 556.702L1706 513L1704 513L1704 574.048C1704.78 568.301 1705.45 562.518 1706 556.702ZM1694 624.971L1694 513L1692 513L1692 632.424C1692.69 629.948 1693.35 627.464 1694 624.971ZM1690 639.397L1690 513L1688 513L1688 645.966C1688.68 643.783 1689.35 641.594 1690 639.397ZM1678 674.418L1678 513L1676 513L1676 679.443C1676.68 677.773 1677.34 676.098 1678 674.418ZM1674 684.295L1674 513L1672 513L1672 688.989C1672.68 687.429 1673.34 685.865 1674 684.295ZM1662 710.467L1662 513L1660 513L1660 714.425C1660.67 713.109 1661.34 711.79 1662 710.467ZM1658 718.286L1658 513L1656 513L1656 722.056C1656.67 720.803 1657.34 719.546 1658 718.286ZM1646 739.696L1646 513L1644 513L1644 743.008C1644.67 741.907 1645.34 740.803 1646 739.696ZM1642 746.256L1642 513L1640 513L1640 749.442C1640.67 748.383 1641.34 747.321 1642 746.256ZM1630 764.526L1630 513L1628 513L1628 767.388C1628.67 766.437 1629.34 765.483 1630 764.526ZM1626 770.202L1626 513L1624 513L1624 772.971C1624.67 772.051 1625.34 771.128 1626 770.202ZM1614 786.173L1614 513L1612 513L1612 788.694C1612.67 787.856 1613.34 787.016 1614 786.173ZM1610 791.178L1610 513L1608 513L1608 793.625C1608.67 792.812 1609.34 791.996 1610 791.178ZM1598 805.351L1598 513L1596 513L1596 807.6C1596.67 806.853 1597.34 806.103 1598 805.351ZM1594 809.818L1594 513L1592 513L1592 812.006C1592.67 811.279 1593.34 810.55 1594 809.818ZM1582 822.523L1582 513L1580 513L1580 824.545C1580.67 823.873 1581.34 823.199 1582 822.523ZM1578 826.542L1578 513L1576 513L1576 828.513C1576.67 827.858 1577.34 827.201 1578 826.542ZM1566 838.006L1566 513L1564 513L1564 839.835C1564.67 839.227 1565.34 838.618 1566 838.006ZM1562 841.641L1562 513L1560 513L1560 843.426C1560.67 842.833 1561.34 842.238 1562 841.641ZM1550 852.032L1550 513L1548 513L1548 853.691C1548.67 853.14 1549.34 852.587 1550 852.032ZM1546 855.331L1546 513L1544 513L1544 856.952C1544.67 856.414 1545.33 855.874 1546 855.331ZM1534 864.773L1534 513L1532 513L1532 866.282C1532.67 865.781 1533.33 865.278 1534 864.773ZM1530 867.774L1530 513L1528 513L1528 869.248C1528.67 868.759 1529.33 868.267 1530 867.774ZM1518 876.364L1518 513L1516 513L1516 877.737C1516.67 877.281 1517.33 876.823 1518 876.364ZM1514 879.095L1514 513L1512 513L1512 880.436C1512.67 879.991 1513.33 879.544 1514 879.095ZM1502 886.91L1502 513L1500 513L1500 888.159C1500.67 887.744 1501.33 887.328 1502 886.91ZM1498 889.393L1498 513L1496 513L1496 890.613C1496.67 890.208 1497.33 889.801 1498 889.393ZM1486 896.495L1486 513L1484 513L1484 897.63C1484.67 897.253 1485.33 896.875 1486 896.495ZM1482 898.75L1482 513L1480 513L1480 899.857C1480.67 899.49 1481.33 899.121 1482 898.75ZM1470 905.19L1470 513L1468 513L1468 906.217C1468.67 905.876 1469.33 905.534 1470 905.19ZM1466 907.231L1466 513L1464 513L1464 908.233C1464.67 907.9 1465.33 907.567 1466 907.231ZM1454 913.05L1454 513L1452 513L1452 913.977C1452.67 913.669 1453.33 913.361 1454 913.05ZM1450 914.891L1450 513L1448 513L1448 915.793C1448.67 915.494 1449.33 915.193 1450 914.891ZM1438 920.124L1438 513L1436 513L1436 920.955C1436.67 920.679 1437.33 920.402 1438 920.124ZM1434 921.774L1434 513L1432 513L1432 922.582C1432.67 922.314 1433.33 922.045 1434 921.774ZM1422 926.45L1422 513L1420 513L1420 927.19C1420.67 926.945 1421.33 926.698 1422 926.45ZM1418 927.919L1418 513L1416 513L1416 928.637C1416.67 928.399 1417.33 928.16 1418 927.919ZM1406 932.063L1406 513L1404 513L1404 932.715C1404.67 932.499 1405.33 932.282 1406 932.063ZM1402 933.358L1402 513L1400 513L1400 933.989C1400.67 933.78 1401.33 933.57 1402 933.358ZM1390 936.99L1390 513L1388 513L1388 937.559C1388.67 937.371 1389.33 937.181 1390 936.99ZM1386 938.118L1386 513L1384 513L1384 938.666C1384.67 938.485 1385.33 938.302 1386 938.118ZM1374 941.256L1374 513L1372 513L1372 941.744C1372.67 941.582 1373.33 941.42 1374 941.256ZM1370 942.221L1370 513L1368 513L1368 942.689C1368.67 942.535 1369.33 942.379 1370 942.221ZM1358 944.88L1358 513L1356 513L1356 945.289C1356.67 945.155 1357.33 945.018 1358 944.88ZM1354 945.689L1354 513L1352 513L1352 946.078C1352.67 945.95 1353.33 945.82 1354 945.689ZM1342 947.881L1342 513L1340 513L1340 948.213C1340.67 948.104 1341.33 947.993 1342 947.881ZM1338 948.536L1338 513L1336 513L1336 948.849C1336.67 948.746 1337.33 948.641 1338 948.536ZM1326 950.272L1326 513L1324 513L1324 950.529C1324.67 950.445 1325.33 950.36 1326 950.272ZM1322 950.777L1322 513L1320 513L1320 951.015C1320.67 950.937 1321.33 950.857 1322 950.777ZM1310 952.066L1310 513L1308 513L1308 952.249C1308.67 952.19 1309.33 952.129 1310 952.066ZM1306 952.423L1306 513L1304 513L1304 952.587C1304.67 952.534 1305.33 952.479 1306 952.423ZM1294 953.273L1294 513L1292 513L1292 953.382C1292.67 953.347 1293.33 953.311 1294 953.273ZM1290 953.483L1290 513L1288 513L1288 953.575C1288.67 953.546 1289.33 953.515 1290 953.483ZM1278 953.899L1278 513L1276 513L1276 953.937C1276.67 953.926 1277.33 953.913 1278 953.899ZM1274 953.966L1274 513L1272 513L1272 953.986C1272.67 953.981 1273.33 953.974 1274 953.966ZM1262 953.953L1262 513L1260 513L1260 953.919C1260.67 953.932 1261.33 953.943 1262 953.953Z" fill="#2C2C2C"/>
</g>
<defs>
<clipPath id="clip0_1731_27178">
<rect width="1728" height="1728" fill="white"/>
</clipPath>
</defs>
</svg>
