<svg width="72" height="72" viewBox="0 0 72 72" fill="none" xmlns="http://www.w3.org/2000/svg">
<path d="M64.3107 7.32227L40.1445 25.2528L44.6332 14.674L64.3107 7.32227Z" fill="#E2761B"/>
<path fill-rule="evenodd" clip-rule="evenodd" d="M64.4194 7.26261C64.4483 7.31571 64.4337 7.38196 64.3851 7.41798L40.219 25.3485C40.175 25.3811 40.1147 25.3802 40.0717 25.3464C40.0287 25.3125 40.0137 25.254 40.035 25.2037L44.5237 14.6249C44.5367 14.5943 44.5618 14.5703 44.5929 14.5587L64.2704 7.20691C64.327 7.18576 64.3906 7.20951 64.4194 7.26261ZM44.7267 14.7677L40.4326 24.8879L63.5512 7.73463L44.7267 14.7677Z" fill="#E2761B"/>
<path d="M8.5791 7.32227L32.5269 25.4226L28.2565 14.674L8.5791 7.32227Z" fill="#E4761B"/>
<path fill-rule="evenodd" clip-rule="evenodd" d="M8.47301 7.26214C8.50201 7.20934 8.56536 7.18583 8.62179 7.20691L28.2992 14.5587C28.3313 14.5706 28.3569 14.5957 28.3695 14.6275L32.6398 25.3761C32.6599 25.4267 32.6439 25.4844 32.6006 25.5174C32.5573 25.5504 32.4973 25.5505 32.4539 25.5177L8.50618 7.41733C8.45813 7.38101 8.444 7.31493 8.47301 7.26214ZM9.31603 7.7253L32.2542 25.0625L28.1639 14.7671L9.31603 7.7253Z" fill="#E4761B"/>
<path d="M55.6241 48.8848L49.1943 58.7356L62.9516 62.5207L66.8822 49.1031L55.6241 48.8848Z" fill="#E4761B"/>
<path fill-rule="evenodd" clip-rule="evenodd" d="M55.5237 48.8167C55.5465 48.7817 55.5858 48.7609 55.6276 48.7617L66.8857 48.9801C66.9235 48.9808 66.9588 48.9991 66.9812 49.0296C67.0036 49.0601 67.0104 49.0992 66.9998 49.1355L63.0692 62.553C63.0506 62.6166 62.9844 62.6535 62.9206 62.6359L49.1634 58.8509C49.126 58.8406 49.0958 58.8131 49.0821 58.7768C49.0684 58.7406 49.0728 58.7 49.0939 58.6676L55.5237 48.8167ZM55.6901 49.0056L49.388 58.661L62.8699 62.3703L66.7223 49.2196L55.6901 49.0056Z" fill="#E4761B"/>
<path d="M6.0332 49.1031L9.93957 62.5207L23.6968 58.7356L17.2913 48.8848L6.0332 49.1031Z" fill="#E4761B"/>
<path fill-rule="evenodd" clip-rule="evenodd" d="M17.2872 48.7617C17.3291 48.7609 17.3685 48.7818 17.3913 48.8169L23.7968 58.6677C23.8179 58.7002 23.8222 58.7408 23.8085 58.7769C23.7947 58.8131 23.7646 58.8406 23.7272 58.8509L9.97003 62.6359C9.9061 62.6535 9.8399 62.6165 9.82136 62.5529L5.91499 49.1353C5.90444 49.0991 5.91137 49.06 5.93374 49.0295C5.95611 48.9991 5.99137 48.9808 6.02912 48.9801L17.2872 48.7617ZM6.19224 49.2196L10.0209 62.3703L23.5029 58.6609L17.2246 49.0056L6.19224 49.2196Z" fill="#E4761B"/>
<path d="M22.9439 32.2405L19.1104 38.0394L32.7463 38.646L32.2853 23.9668L22.9439 32.2405Z" fill="#E4761B"/>
<path fill-rule="evenodd" clip-rule="evenodd" d="M32.3316 23.8537C32.3748 23.8723 32.4033 23.9142 32.4048 23.9613L32.8658 38.6405C32.8668 38.6742 32.8538 38.7069 32.8297 38.7306C32.8057 38.7544 32.7729 38.767 32.7391 38.7655L19.1032 38.1589C19.0596 38.157 19.0204 38.1317 19.0005 38.0928C18.9807 38.0538 18.9833 38.0073 19.0074 37.9708L22.841 32.1719C22.8468 32.1631 22.8538 32.155 22.8618 32.148L32.2031 23.8743C32.2383 23.8431 32.2884 23.835 32.3316 23.8537ZM23.0346 32.319L19.3279 37.926L32.6192 38.5173L32.1704 24.2273L23.0346 32.319Z" fill="#E4761B"/>
<path d="M49.9469 32.2385L40.46 23.7949L40.1445 38.644L53.7804 38.0374L49.9469 32.2385Z" fill="#E4761B"/>
<path fill-rule="evenodd" clip-rule="evenodd" d="M40.4117 23.6839C40.4551 23.665 40.5055 23.6731 40.5408 23.7045L50.0277 32.1481C50.0356 32.1551 50.0425 32.1631 50.0483 32.1718L53.8819 37.9707C53.906 38.0072 53.9086 38.0538 53.8888 38.0927C53.8689 38.1316 53.8297 38.1569 53.786 38.1588L40.1501 38.7654C40.1166 38.7669 40.084 38.7544 40.06 38.731C40.036 38.7075 40.0228 38.6752 40.0235 38.6416L40.3389 23.7926C40.3399 23.7453 40.3683 23.7029 40.4117 23.6839ZM40.5759 24.0605L40.2688 38.5173L53.5614 37.9259L49.8546 32.3188L40.5759 24.0605Z" fill="#E4761B"/>
<path d="M23.6953 58.7346L31.9205 54.7312L24.8357 49.1992L23.6953 58.7346Z" fill="#E4761B"/>
<path fill-rule="evenodd" clip-rule="evenodd" d="M24.7873 49.0855C24.8278 49.0687 24.8741 49.0749 24.9086 49.1019L31.9935 54.6339C32.0265 54.6596 32.0438 54.7006 32.0394 54.7422C32.0351 54.7838 32.0095 54.8203 31.9719 54.8386L23.7467 58.842C23.7068 58.8614 23.6594 58.8575 23.6233 58.8318C23.5871 58.806 23.5679 58.7626 23.5731 58.7185L24.7135 49.1831C24.7187 49.1396 24.7469 49.1023 24.7873 49.0855ZM24.9289 49.4255L23.8404 58.5265L31.6909 54.7055L24.9289 49.4255Z" fill="#E4761B"/>
<path d="M40.9707 54.7312L49.1959 58.7346L48.0556 49.1992L40.9707 54.7312Z" fill="#E4761B"/>
<path fill-rule="evenodd" clip-rule="evenodd" d="M48.1014 49.0855C48.1418 49.1023 48.1701 49.1396 48.1753 49.1831L49.3156 58.7185C49.3209 58.7626 49.3017 58.806 49.2655 58.8318C49.2293 58.8575 49.182 58.8614 49.1421 58.842L40.9169 54.8386C40.8792 54.8203 40.8537 54.7838 40.8493 54.7422C40.8449 54.7006 40.8623 54.6596 40.8953 54.6339L47.9801 49.1019C48.0147 49.0749 48.061 49.0687 48.1014 49.0855ZM41.1978 54.7055L49.0483 58.5265L47.9599 49.4255L41.1978 54.7055Z" fill="#E4761B"/>
<path d="M49.1959 58.7358L40.9707 54.7324L41.6258 60.0946L41.553 62.3511L49.1959 58.7358Z" fill="#D7C1B3"/>
<path fill-rule="evenodd" clip-rule="evenodd" d="M40.8995 54.6319C40.9357 54.6061 40.9831 54.6022 41.023 54.6216L49.2483 58.625C49.2902 58.6455 49.3167 58.6881 49.3165 58.7348C49.3162 58.7815 49.2892 58.8238 49.247 58.8438L41.6041 62.459C41.5659 62.4771 41.5211 62.474 41.4857 62.4508C41.4504 62.4276 41.4297 62.3877 41.431 62.3454L41.5035 60.0983L40.8495 54.7454C40.8441 54.7013 40.8633 54.6577 40.8995 54.6319ZM41.1174 54.9374L41.7455 60.0781C41.7462 60.0843 41.7465 60.0905 41.7463 60.0968L41.6799 62.1547L48.9148 58.7326L41.1174 54.9374Z" fill="#D7C1B3"/>
<path d="M23.6934 58.7358L31.3363 62.3511L31.2877 60.0946L31.9186 54.7324L23.6934 58.7358Z" fill="#D7C1B3"/>
<path fill-rule="evenodd" clip-rule="evenodd" d="M31.991 54.6318C32.0272 54.6575 32.0464 54.7008 32.0412 54.7449L31.4114 60.0987L31.4597 62.3467C31.4606 62.3888 31.4397 62.4283 31.4044 62.4511C31.3692 62.474 31.3246 62.477 31.2866 62.459L23.6437 58.8438C23.6015 58.8238 23.5745 58.7815 23.5742 58.7348C23.574 58.6881 23.6005 58.6455 23.6424 58.625L31.8677 54.6216C31.9075 54.6022 31.9548 54.6061 31.991 54.6318ZM23.9759 58.7326L31.2129 62.1558L31.1686 60.0955C31.1685 60.0899 31.1688 60.0843 31.1694 60.0787L31.7743 54.9369L23.9759 58.7326Z" fill="#D7C1B3"/>
<path d="M31.4858 45.6554L24.6436 43.6415L29.4719 41.4336L31.4858 45.6554Z" fill="#233447"/>
<path fill-rule="evenodd" clip-rule="evenodd" d="M29.4197 41.3255C29.48 41.2979 29.5512 41.3238 29.5797 41.3836L31.5935 45.6054C31.6142 45.6486 31.6074 45.6999 31.5764 45.7363C31.5453 45.7727 31.4957 45.7875 31.4498 45.774L24.6076 43.7601C24.559 43.7458 24.5244 43.7029 24.5208 43.6524C24.5172 43.6019 24.5453 43.5545 24.5914 43.5334L29.4197 41.3255ZM24.9876 43.619L31.2575 45.4644L29.4121 41.5958L24.9876 43.619Z" fill="#233447"/>
<path d="M41.4062 45.6554L43.4201 41.4336L48.2727 43.6415L41.4062 45.6554Z" fill="#233447"/>
<path fill-rule="evenodd" clip-rule="evenodd" d="M43.3089 41.3836C43.3373 41.3239 43.4084 41.298 43.4686 41.3254L48.3212 43.5333C48.3674 43.5543 48.3956 43.6018 48.392 43.6523C48.3884 43.7029 48.3538 43.7459 48.3051 43.7602L41.4387 45.774C41.3927 45.7875 41.3432 45.7727 41.3122 45.7362C41.2811 45.6998 41.2744 45.6485 41.295 45.6054L43.3089 41.3836ZM43.4766 41.5956L41.6309 45.4648L47.9239 43.6191L43.4766 41.5956Z" fill="#233447"/>
<path d="M23.6984 58.7356L24.8873 48.8848L17.293 49.1031L23.6984 58.7356Z" fill="#CD6116"/>
<path fill-rule="evenodd" clip-rule="evenodd" d="M24.9752 48.8032C24.999 48.8293 25.0103 48.8645 25.0061 48.8995L23.8172 58.7504C23.8111 58.8008 23.7742 58.8421 23.7248 58.8539C23.6753 58.8656 23.6238 58.8453 23.5957 58.803L17.1902 49.1705C17.1658 49.1338 17.1632 49.0867 17.1835 49.0476C17.2038 49.0084 17.2437 48.9834 17.2878 48.9821L24.8821 48.7637C24.9174 48.7627 24.9514 48.7771 24.9752 48.8032ZM17.5134 49.2183L23.6157 58.3949L24.7483 49.0103L17.5134 49.2183Z" fill="#CD6116"/>
<path d="M48.0068 48.8848L49.1957 58.7356L55.6255 49.1031L48.0068 48.8848Z" fill="#CD6116"/>
<path fill-rule="evenodd" clip-rule="evenodd" d="M47.9194 48.8032C47.9432 48.7771 47.9772 48.7627 48.0125 48.7637L55.6311 48.9821C55.6752 48.9834 55.7152 49.0085 55.7354 49.0477C55.7557 49.0869 55.7531 49.134 55.7286 49.1707L49.2988 58.8032C49.2706 58.8454 49.2191 58.8656 49.1698 58.8538C49.1204 58.8421 49.0836 58.8008 49.0775 58.7504L47.8886 48.8995C47.8843 48.8645 47.8956 48.8293 47.9194 48.8032ZM48.1463 49.0103L49.2791 58.3957L55.405 49.2183L48.1463 49.0103Z" fill="#CD6116"/>
<path d="M53.7834 38.041L40.1475 38.6476L41.4091 45.6597L43.423 41.4379L48.2756 43.6458L53.7834 38.041Z" fill="#CD6116"/>
<path fill-rule="evenodd" clip-rule="evenodd" d="M53.8944 37.9899C53.9147 38.0354 53.9051 38.0888 53.8701 38.1243L48.3624 43.7291C48.3266 43.7655 48.272 43.7756 48.2256 43.7545L43.4814 41.5959L41.5189 45.7102C41.4962 45.7577 41.4454 45.7852 41.3932 45.7782C41.341 45.7711 41.2993 45.7312 41.29 45.6794L40.0283 38.6673C40.0221 38.6329 40.0311 38.5975 40.0529 38.5701C40.0748 38.5428 40.1073 38.5262 40.1423 38.5247L53.7782 37.9181C53.828 37.9159 53.8741 37.9444 53.8944 37.9899ZM40.2916 38.7609L41.4621 45.2657L43.3137 41.3839C43.3422 41.3242 43.4132 41.2983 43.4735 41.3257L48.2488 43.4985L53.4809 38.1742L40.2916 38.7609Z" fill="#CD6116"/>
<path d="M24.6433 43.6458L29.4717 41.4379L31.4855 45.6597L32.7472 38.6476L19.1113 38.041L24.6433 43.6458Z" fill="#CD6116"/>
<path fill-rule="evenodd" clip-rule="evenodd" d="M18.9987 37.99C19.019 37.9444 19.0651 37.9159 19.115 37.9181L32.7509 38.5247C32.7859 38.5262 32.8184 38.5428 32.8403 38.5701C32.8621 38.5975 32.8711 38.6329 32.8649 38.6673L31.6032 45.6794C31.5939 45.7312 31.5522 45.7711 31.5 45.7782C31.4478 45.7852 31.397 45.7577 31.3743 45.7102L29.4119 41.5961L24.6921 43.7544C24.6457 43.7756 24.5911 43.7656 24.5553 43.7293L19.0233 38.1245C18.9882 38.089 18.9785 38.0356 18.9987 37.99ZM19.4132 38.1742L24.6683 43.4985L29.4195 41.3258C29.4798 41.2983 29.551 41.3241 29.5795 41.3839L31.4311 45.2657L32.6015 38.7609L19.4132 38.1742Z" fill="#CD6116"/>
<path d="M19.1094 38.0371L24.8355 49.1982L24.6414 43.6419L19.1094 38.0371Z" fill="#E4751F"/>
<path fill-rule="evenodd" clip-rule="evenodd" d="M19.0395 37.9391C19.088 37.9039 19.1549 37.9095 19.1969 37.9521L24.7289 43.5569C24.7503 43.5786 24.7628 43.6075 24.7638 43.6379L24.9579 49.1942C24.9599 49.2509 24.9222 49.3015 24.8672 49.3158C24.8122 49.3301 24.7547 49.3043 24.7288 49.2538L19.0026 38.0927C18.9753 38.0394 18.9909 37.9742 19.0395 37.9391ZM19.579 38.6846L24.6965 48.6593L24.523 43.6937L19.579 38.6846Z" fill="#E4751F"/>
<path d="M48.275 43.6419L48.0566 49.1982L53.7827 38.0371L48.275 43.6419Z" fill="#E4751F"/>
<path fill-rule="evenodd" clip-rule="evenodd" d="M53.852 37.937C53.9006 37.9721 53.9163 38.0374 53.889 38.0908L48.1628 49.2518C48.1369 49.3025 48.0792 49.3282 48.0241 49.3138C47.9691 49.2993 47.9315 49.2486 47.9337 49.1917L48.1521 43.6354C48.1532 43.6053 48.1656 43.5767 48.1867 43.5551L53.6945 37.9503C53.7365 37.9076 53.8034 37.9019 53.852 37.937ZM48.3927 43.6918L48.1977 48.6523L53.3099 38.6879L48.3927 43.6918Z" fill="#E4751F"/>
<path d="M32.7441 38.6445L31.4824 45.6566L33.0838 53.9303L33.4235 43.0362L32.7441 38.6445Z" fill="#E4751F"/>
<path fill-rule="evenodd" clip-rule="evenodd" d="M32.7478 38.5215C32.807 38.5222 32.8571 38.5657 32.8662 38.6243L33.5455 43.0159C33.5467 43.0233 33.5471 43.0307 33.5469 43.0382L33.2072 53.9324C33.2053 53.9941 33.1573 54.0446 33.0957 54.0495C33.0341 54.0545 32.9786 54.0123 32.9669 53.9517L31.3655 45.6779C31.3626 45.6632 31.3625 45.6481 31.3652 45.6334L32.6269 38.6213C32.6374 38.563 32.6885 38.5208 32.7478 38.5215ZM31.608 45.654L32.9986 52.8387L33.304 43.0419L32.7373 39.378L31.608 45.654Z" fill="#E4751F"/>
<path d="M40.1473 38.6445L39.4922 43.0119L39.8076 53.9303L41.409 45.6566L40.1473 38.6445Z" fill="#E4751F"/>
<path fill-rule="evenodd" clip-rule="evenodd" d="M40.1448 38.5215C40.2041 38.5206 40.2554 38.5629 40.2659 38.6213L41.5276 45.6334C41.5303 45.6481 41.5302 45.6632 41.5273 45.6779L39.926 53.9517C39.9142 54.0124 39.8587 54.0545 39.797 54.0495C39.7354 54.0445 39.6874 53.9939 39.6856 53.9321L39.3702 43.0137C39.37 43.0065 39.3704 42.9993 39.3715 42.9922L40.0266 38.6248C40.0354 38.5661 40.0854 38.5224 40.1448 38.5215ZM40.1574 39.3882L39.613 43.0175L39.8964 52.8275L41.2848 45.654L40.1574 39.3882Z" fill="#E4751F"/>
<path d="M41.408 45.6564L39.8066 53.9302L40.9713 54.7308L48.0561 49.1988L48.2745 43.6426L41.408 45.6564Z" fill="#F6851B"/>
<path fill-rule="evenodd" clip-rule="evenodd" d="M48.3483 43.5452C48.3791 43.5692 48.3965 43.6066 48.395 43.6456L48.1766 49.2019C48.1752 49.2375 48.1582 49.2708 48.13 49.2927L41.0452 54.8247C41.0035 54.8573 40.9454 54.8591 40.9018 54.8291L39.7372 54.0284C39.6974 54.0011 39.6776 53.9528 39.6868 53.9054L41.2882 45.6316C41.2968 45.5871 41.3296 45.5511 41.3731 45.5383L48.2396 43.5244C48.2771 43.5134 48.3176 43.5212 48.3483 43.5452ZM41.5123 45.7503L39.9401 53.8735L40.966 54.5788L47.9364 49.1361L48.1459 43.8048L41.5123 45.7503Z" fill="#F6851B"/>
<path d="M24.6436 43.6426L24.8377 49.1988L31.9225 54.7308L33.0871 53.9302L31.4858 45.6564L24.6436 43.6426Z" fill="#F6851B"/>
<path fill-rule="evenodd" clip-rule="evenodd" d="M24.5675 43.545C24.5983 43.5211 24.6387 43.5135 24.6761 43.5245L31.5183 45.5383C31.5618 45.5511 31.5945 45.5871 31.6031 45.6316L33.2045 53.9054C33.2137 53.9528 33.1939 54.0011 33.1541 54.0284L31.9895 54.8291C31.9459 54.8591 31.8878 54.8573 31.8461 54.8247L24.7613 49.2927C24.733 49.2707 24.7159 49.2372 24.7147 49.2014L24.5206 43.6451C24.5192 43.6061 24.5367 43.5689 24.5675 43.545ZM24.7689 43.8047L24.9552 49.1363L31.9253 54.5788L32.9512 53.8735L31.379 45.7502L24.7689 43.8047Z" fill="#F6851B"/>
<path d="M41.5511 62.3496L41.6238 60.0931L41.0173 59.5593H31.87L31.2877 60.0931L31.3363 62.3496L23.6934 58.7344L26.3623 60.9181L31.7973 64.6789H41.0901L46.525 60.9181L49.194 58.7344L41.5511 62.3496Z" fill="#C0AD9E"/>
<path fill-rule="evenodd" clip-rule="evenodd" d="M23.593 58.6678C23.6258 58.616 23.692 58.5968 23.7474 58.623L31.2129 62.1543L31.1686 60.094C31.1679 60.0591 31.1822 60.0256 31.2079 60.002L31.7903 59.4682C31.8126 59.4477 31.8419 59.4363 31.8722 59.4363H41.0194C41.049 59.4363 41.0774 59.447 41.0996 59.4665L41.7062 60.0003C41.7334 60.0243 41.7484 60.0591 41.7473 60.0953L41.6809 62.1533L49.1443 58.623C49.1997 58.5968 49.2659 58.616 49.2987 58.6678C49.3314 58.7196 49.3204 58.7877 49.273 58.8266L46.604 61.0102C46.6015 61.0123 46.5989 61.0143 46.5962 61.0161L41.1613 64.7769C41.141 64.7909 41.1169 64.7985 41.0922 64.7985H31.7994C31.7748 64.7985 31.7507 64.7909 31.7304 64.7769L26.2955 61.0161C26.2928 61.0143 26.2902 61.0123 26.2877 61.0102L23.6187 58.8266C23.5713 58.7877 23.5602 58.7196 23.593 58.6678ZM24.5385 59.2656L26.4375 60.8194L31.8373 64.5558H41.0544L46.4541 60.8194L48.3532 59.2656L41.6051 62.4575C41.5669 62.4756 41.522 62.4725 41.4867 62.4493C41.4513 62.4261 41.4306 62.3862 41.432 62.344L41.5029 60.1447L40.9737 59.6789H31.9194L31.4124 60.1437L31.4597 62.3453C31.4606 62.3873 31.4397 62.4268 31.4044 62.4497C31.3692 62.4725 31.3246 62.4755 31.2866 62.4575L24.5385 59.2656Z" fill="#C0AD9E"/>
<path d="M40.972 54.7304L39.8074 53.9297H33.0865L31.9219 54.7304L31.291 60.0925L31.8733 59.5587H41.0206L41.6271 60.0925L40.972 54.7304Z" fill="#161616"/>
<path fill-rule="evenodd" clip-rule="evenodd" d="M33.016 53.828C33.0363 53.8141 33.0602 53.8066 33.0848 53.8066H39.8057C39.8302 53.8066 39.8542 53.8141 39.8744 53.828L41.039 54.6287C41.0677 54.6484 41.0865 54.6794 41.0907 54.7139L41.7458 60.0761C41.7519 60.1261 41.7265 60.1746 41.682 60.1981C41.6375 60.2216 41.5831 60.2151 41.5453 60.1819L40.973 59.6783H31.9188L31.3713 60.1802C31.3339 60.2145 31.2792 60.2219 31.234 60.1988C31.1889 60.1757 31.1629 60.127 31.1688 60.0766L31.7996 54.7145C31.8037 54.6797 31.8226 54.6485 31.8514 54.6287L33.016 53.828ZM33.1224 54.0493L32.0342 54.7974L31.4479 59.7808L31.7896 59.4676C31.812 59.4471 31.8413 59.4357 31.8716 59.4357H41.0188C41.0483 59.4357 41.0768 59.4464 41.099 59.4659L41.4663 59.7892L40.8565 54.7976L39.768 54.0493H33.1224Z" fill="#161616"/>
<path d="M65.3309 26.4174L67.369 16.518L64.3119 7.32227L40.9707 24.6462L49.9481 32.2405L62.6377 35.9528L65.428 32.6773L64.2148 31.8038L66.1559 30.0326L64.6758 28.868L66.6169 27.3879L65.3309 26.4174Z" fill="#763D16"/>
<path fill-rule="evenodd" clip-rule="evenodd" d="M64.3476 7.20484C64.3847 7.21655 64.414 7.24534 64.4262 7.28226L67.4834 16.478C67.4901 16.4982 67.4914 16.5199 67.4871 16.5407L65.4645 26.365L66.6892 27.2893C66.7195 27.3122 66.7373 27.3479 66.7374 27.3859C66.7375 27.4238 66.7199 27.4596 66.6897 27.4827L64.8732 28.8677L66.2301 29.9355C66.2582 29.9576 66.2751 29.9908 66.2764 30.0264C66.2777 30.0621 66.2632 30.0965 66.2369 30.1205L64.4062 31.791L65.4981 32.5771C65.5256 32.5969 65.5436 32.6273 65.5477 32.661C65.5517 32.6946 65.5416 32.7284 65.5196 32.7542L62.7293 36.0298C62.6983 36.0662 62.6488 36.0809 62.6029 36.0675L49.9133 32.3553C49.897 32.3505 49.8819 32.3424 49.869 32.3314L40.8916 24.7371C40.8633 24.7131 40.8475 24.6776 40.8487 24.6406C40.8499 24.6036 40.8679 24.5691 40.8976 24.547L64.2388 7.22312C64.2701 7.19993 64.3105 7.19314 64.3476 7.20484ZM41.1651 24.6507L50.0061 32.1296L62.5956 35.8126L65.2495 32.6971L64.1432 31.9005C64.1135 31.8792 64.0951 31.8456 64.093 31.8091C64.0908 31.7726 64.1053 31.7371 64.1323 31.7125L65.9676 30.0377L64.6001 28.9616C64.5706 28.9384 64.5535 28.9028 64.5538 28.8653C64.554 28.8278 64.5717 28.7925 64.6015 28.7698L66.4154 27.3867L65.2571 26.5125C65.2197 26.4843 65.2019 26.4371 65.2113 26.3912L67.2429 16.5237L64.2489 7.51782L41.1651 24.6507Z" fill="#763D16"/>
<path d="M5.52344 16.518L7.58581 26.4174L6.2756 27.3879L8.21665 28.868L6.7366 30.0326L8.67765 31.8038L7.46449 32.6773L10.2548 35.9528L22.9444 32.2405L31.9218 24.6462L8.5806 7.32227L5.52344 16.518Z" fill="#763D16"/>
<path fill-rule="evenodd" clip-rule="evenodd" d="M8.54236 7.20484C8.57946 7.19314 8.61993 7.19993 8.65117 7.22312L31.9923 24.547C32.0221 24.5691 32.0401 24.6036 32.0413 24.6406C32.0425 24.6776 32.0267 24.7131 31.9984 24.7371L23.021 32.3314C23.0081 32.3424 22.993 32.3505 22.9767 32.3553L10.2871 36.0675C10.2412 36.0809 10.1917 36.0662 10.1607 36.0298L7.37041 32.7542C7.34843 32.7284 7.33825 32.6946 7.34233 32.661C7.3464 32.6273 7.36437 32.5969 7.39188 32.5771L8.48375 31.791L6.65309 30.1205C6.62676 30.0965 6.61233 30.0621 6.61363 30.0264C6.61493 29.9908 6.63183 29.9576 6.65984 29.9355L8.01682 28.8677L6.20031 27.4827C6.16998 27.4595 6.15229 27.4235 6.15255 27.3853C6.15282 27.3472 6.17101 27.3114 6.20165 27.2887L7.44947 26.3644L5.40294 16.541C5.39857 16.5201 5.39983 16.4983 5.40659 16.478L8.46375 7.28226C8.47602 7.24534 8.50526 7.21655 8.54236 7.20484ZM8.64112 7.51782L5.64714 16.5235L7.70284 26.3909C7.7125 26.4372 7.69432 26.485 7.65629 26.5131L6.47578 27.3876L8.28848 28.7698C8.31832 28.7925 8.33595 28.8278 8.33623 28.8653C8.33652 28.9028 8.31943 28.9384 8.28994 28.9616L6.92235 30.0377L8.75769 31.7125C8.78469 31.7371 8.79914 31.7726 8.79703 31.8091C8.79492 31.8456 8.77647 31.8792 8.7468 31.9005L7.64047 32.6971L10.2944 35.8126L22.8839 32.1296L31.7249 24.6507L8.64112 7.51782Z" fill="#763D16"/>
<path d="M62.6378 35.9525L49.9482 32.2402L53.7818 38.0391L48.0557 49.2002L55.6258 49.1031H66.8839L62.6378 35.9525Z" fill="#F6851B"/>
<path fill-rule="evenodd" clip-rule="evenodd" d="M49.8488 32.1665C49.8791 32.1255 49.9317 32.1078 49.9805 32.1221L62.6702 35.8343C62.7087 35.8456 62.7392 35.8753 62.7515 35.9135L66.9976 49.0641C67.0095 49.1011 67.0031 49.1415 66.9802 49.1728C66.9574 49.2042 66.9209 49.2227 66.8822 49.2227H55.624L48.0555 49.3198C48.0129 49.3203 47.9732 49.2985 47.9508 49.2624C47.9284 49.2262 47.9266 49.181 47.946 49.1431L53.6397 38.0451L49.8453 32.3054C49.8172 32.2629 49.8186 32.2075 49.8488 32.1665ZM50.2304 32.448L53.8812 37.9705C53.9054 38.0071 53.908 38.0538 53.888 38.0928L48.2538 49.0746L55.624 48.9801L66.7155 48.9801L62.5404 36.0492L50.2304 32.448Z" fill="#F6851B"/>
<path d="M22.9427 32.2402L10.253 35.9525L6.03125 49.1031H17.2894L24.8352 49.2002L19.1091 38.0391L22.9427 32.2402Z" fill="#F6851B"/>
<path fill-rule="evenodd" clip-rule="evenodd" d="M23.0425 32.1665C23.0727 32.2075 23.0741 32.2629 23.0461 32.3054L19.2516 38.0451L24.9453 49.1431C24.9647 49.181 24.9629 49.2262 24.9405 49.2624C24.9181 49.2985 24.8784 49.3203 24.8358 49.3198L17.2915 49.2227H6.03343C5.99467 49.2227 5.95824 49.2042 5.93541 49.1729C5.91257 49.1416 5.90607 49.1012 5.91792 49.0643L10.1397 35.9137C10.152 35.8754 10.1825 35.8456 10.2212 35.8343L22.9108 32.1221C22.9597 32.1078 23.0123 32.1255 23.0425 32.1665ZM10.3511 36.0491L6.19979 48.9801H17.2931L24.6375 49.0746L19.0033 38.0928C18.9833 38.0538 18.9859 38.0071 19.0101 37.9705L22.661 32.448L10.3511 36.0491Z" fill="#F6851B"/>
<path d="M40.1458 38.6419L40.9707 24.6421L44.6345 14.6699H28.2568L31.9206 24.6421L32.7455 38.6419L33.0609 43.0578L33.0852 53.9277H39.8061L39.8304 43.0578L40.1458 38.6419Z" fill="#F6851B"/>
<path fill-rule="evenodd" clip-rule="evenodd" d="M28.1576 14.6007C28.1803 14.5682 28.2174 14.5488 28.2571 14.5488H44.6347C44.6743 14.5488 44.7115 14.5682 44.7342 14.6007C44.7569 14.6332 44.7622 14.6748 44.7486 14.712L41.091 24.6673L40.2671 38.6493L40.267 38.6508L39.9519 43.0625L39.9276 53.9282C39.9275 53.9951 39.8732 54.0493 39.8063 54.0493H33.0854C33.0185 54.0493 32.9643 53.9951 32.9641 53.9282L32.9399 43.0625L32.6247 38.6508L32.6246 38.6493L31.8007 24.6673L28.1432 14.712C28.1295 14.6748 28.1349 14.6332 28.1576 14.6007ZM28.4309 14.7915L32.0347 24.6005C32.0388 24.6116 32.0412 24.6233 32.0419 24.6352L32.8668 38.6335L32.8669 38.635L33.1822 43.0494C33.1824 43.0522 33.1825 43.055 33.1825 43.0578L33.2065 53.8066H39.6853L39.7093 43.0578C39.7093 43.055 39.7094 43.0522 39.7096 43.0494L40.0249 38.635L40.025 38.6335L40.8499 24.6352C40.8506 24.6233 40.853 24.6116 40.8571 24.6005L44.4609 14.7915H28.4309Z" fill="#F6851B"/>
</svg>
