<svg width="36" height="36" viewBox="0 0 36 36" fill="none" xmlns="http://www.w3.org/2000/svg">
<g clip-path="url(#clip0_1641_9710)">
<path fill-rule="evenodd" clip-rule="evenodd" d="M18.4724 0.556279C18.1735 0.414834 17.8269 0.414834 17.5279 0.556278L6.65791 5.69931L11.7363 10.7777H24.264L29.3424 5.6993L18.4724 0.556279ZM30.3011 6.65801L25.2227 11.7364V24.2641L30.3011 29.3425L35.4441 18.4724C35.5856 18.1735 35.5856 17.8269 35.4441 17.5279L30.3011 6.65801ZM29.3424 30.3011L24.264 25.2228H11.7363L6.65801 30.3011L17.5279 35.4441C17.8269 35.5856 18.1735 35.5856 18.4724 35.4441L29.3424 30.3011ZM5.6993 29.3424L10.7776 24.2641V11.7364L5.69925 6.65804L0.556279 17.5279C0.414834 17.8269 0.414834 18.1735 0.556278 18.4724L5.6993 29.3424ZM23.8669 23.867H12.1334V12.1335H23.8669V23.867Z" fill="white"/>
</g>
<defs>
<clipPath id="clip0_1641_9710">
<rect width="36" height="36" fill="white"/>
</clipPath>
</defs>
</svg>
