<svg width="36" height="36" viewBox="0 0 36 36" fill="none" xmlns="http://www.w3.org/2000/svg">
<path d="M18 1.5L4.5 6.05172V18.2998C4.5 22.0537 6.25667 25.5913 9.24736 27.8601L18 34.5L26.7526 27.8601C29.7433 25.5913 31.5 22.0537 31.5 18.2998V6.05172L18 1.5Z" fill="#06070A"/>
<path fill-rule="evenodd" clip-rule="evenodd" d="M18 34.5L26.7526 27.8601C29.7433 25.5913 31.5 22.0537 31.5 18.2998V6.05172L18 1.5V34.5Z" fill="white"/>
<path d="M5.3 18.2998V6.62624L18 2.34425L30.7 6.62624V18.2998C30.7 21.8034 29.0604 25.1052 26.2691 27.2227L18 33.4958L9.73087 27.2227C6.93956 25.1052 5.3 21.8034 5.3 18.2998Z" stroke="black" stroke-width="1.6"/>
</svg>
