<svg width="56" height="56" viewBox="0 0 56 56" fill="none" xmlns="http://www.w3.org/2000/svg">
<g clip-path="url(#clip0_1497_588)">
<path d="M27.8693 7.62222e-05C20.4659 0.0346257 13.3775 2.99986 8.15476 8.24713C2.93197 13.4944 -8.06144e-05 20.5966 1.66235e-09 28C1.66236e-09 35.4261 2.94999 42.548 8.20101 47.799C13.452 53.05 20.5739 56 28 56C35.4261 56 42.548 53.05 47.799 47.799C53.05 42.548 56 35.4261 56 28C56 20.574 53.05 13.4521 47.799 8.20107C42.548 2.95006 35.4261 7.62222e-05 28 7.62222e-05C27.9564 -2.54074e-05 27.9129 -2.54074e-05 27.8693 7.62222e-05V7.62222e-05ZM39.4473 16.8561C39.6807 16.8514 40.1963 16.9097 40.5323 17.1827C40.7556 17.3766 40.898 17.6472 40.9313 17.9411C40.9687 18.1581 41.0153 18.6551 40.978 19.0424C40.558 23.471 38.7333 34.2137 37.8047 39.172C37.4127 41.272 36.6403 41.9744 35.8913 42.042C34.2673 42.1937 33.033 40.9687 31.458 39.9374C28.994 38.3204 27.601 37.3147 25.2093 35.7374C22.4443 33.9174 24.2363 32.914 25.8113 31.2807C26.2243 30.8514 33.3877 24.3344 33.5277 23.744C33.544 23.6694 33.5603 23.394 33.397 23.2494C33.2337 23.1047 32.991 23.1537 32.816 23.1934C32.5687 23.2494 28.6323 25.8534 21.007 30.9984C19.887 31.7684 18.8767 32.1417 17.969 32.1184C16.9703 32.0997 15.0477 31.556 13.6173 31.0917C11.8627 30.52 10.4697 30.219 10.591 29.2507C10.654 28.7467 11.3493 28.231 12.6747 27.7037C20.8367 24.1477 26.278 21.8027 29.0033 20.671C36.778 17.4371 38.395 16.8747 39.4473 16.8561V16.8561Z" fill="white"/>
</g>
<defs>
<clipPath id="clip0_1497_588">
<rect width="56" height="56" fill="white"/>
</clipPath>
</defs>
</svg>
