<svg width="56" height="56" viewBox="0 0 56 56" fill="none" xmlns="http://www.w3.org/2000/svg">
<path d="M55.8903 10.2188C53.7938 11.1653 51.5727 11.79 49.2987 12.0729C51.6929 10.5974 53.4856 8.28351 54.3457 5.5585C52.1267 6.88626 49.6673 7.85278 47.0493 8.39106C45.3221 6.49734 43.0334 5.24132 40.5385 4.81807C38.0436 4.39481 35.4823 4.82799 33.2522 6.05035C31.0221 7.2727 29.248 9.21583 28.2055 11.578C27.1629 13.9401 26.9102 16.5891 27.4867 19.1136C17.9433 18.6519 9.48967 13.9509 3.82667 6.85038C2.79719 8.6442 2.26022 10.6902 2.27267 12.7715C2.27267 16.8624 4.30267 20.4581 7.378 22.5706C5.55534 22.5111 3.77293 22.0058 2.17933 21.0969V21.2404C2.1783 23.9591 3.09463 26.5944 4.77285 28.6993C6.45107 30.8041 8.78783 32.2488 11.3867 32.7884C9.7027 33.251 7.93896 33.3205 6.22533 32.9917C6.96295 35.3315 8.39455 37.3768 10.3204 38.8423C12.2462 40.3077 14.5702 41.1202 16.968 41.1664C12.9069 44.4343 7.89244 46.2079 2.73 46.2024C1.82 46.2024 0.912333 46.1473 0 46.0421C5.26332 49.4974 11.3832 51.3316 17.633 51.3268C38.7567 51.3268 50.295 33.3937 50.295 17.8696C50.295 17.3672 50.295 16.8648 50.26 16.3624C52.514 14.6994 54.4582 12.6347 56 10.2667L55.8903 10.2188Z" fill="white"/>
</svg>
